<svg xmlns="http://www.w3.org/2000/svg" width="700.087" height="372.354" viewBox="0 0 700.087 372.354"><defs><style>.a{fill:#ebf3fa;}.b{fill:#d5e5fb;}.c{fill:#b7d3f3;}.d{fill:#d2e3fc;}.e{fill:#c5dcf8;}.f{fill:#ffb27d;}.g{fill:#1c468a;}.h{fill:#163560;}.i{fill:#b5453c;}.j{fill:#ed975d;}.k{fill:#fff;}.l{fill:#ed7d2b;}.m{fill:#f99746;}.n{fill:#f9ddbf;}.o{fill:#ed893e;}.p{fill:#95c0f4;}.q{fill:#78acea;}.r{fill:#2e3552;}.s{fill:#aec3ff;}.t{fill:#a02e2e;}.u{fill:#bc3f3f;}.v{fill:#9db0f4;}.w{fill:#233862;}.x{fill:#2b478b;}.y{fill:#e2915a;}.z{fill:#2a4e96;}.aa{fill:#dceaff;}.ab{fill:#ed985f;}.ac{fill:#2c3a64;}</style></defs><g transform="translate(-165.9 -315.962)"><g transform="translate(165.9 315.962)"><path class="a" d="M325.783,687.284S230.1,585.589,297.2,490.723c25.04-35.389,88.963-55.268,147.7-39.148,34.7,9.529,87.349,8.126,138.779-75.835,70.144-114.48,361.28-62.441,304.45,138.17C864.2,598.4,953.4,602.264,909.22,687.469Z" transform="translate(-244.893 -315.962)"/><g transform="translate(43.383 84.712)"><g transform="translate(0 35.601)"><path class="b" d="M885.338,817.8,676.919,992.18,567.256,898.744c-20.514,18.079-52.224,45.977-84.119,73.955-21.784,19.137-39.439,34.6-53.733,47.089l-99.6-.106c27.608-23.5,138.832-121.256,213.766-187.3l22.9-20.2,110.853,94.442L840.022,770.5Z" transform="translate(-329.8 -770.5)"/></g><path class="b" d="M2157.8,650.188l99.26,99.551L2285.091,636Z" transform="translate(-1673.941 -636)"/></g><g transform="translate(163.051 228.706)"><g transform="translate(18.328)"><path class="c" d="M871.592,1370.132a185.272,185.272,0,0,0-2.118-22.578c-1.535-8.814-2.885-13.9-2.911-13.949-.212-.768-3.1-3.917-9.555-3.812s-5.85,4.208-5.85,4.208h0a1.561,1.561,0,0,0,.053.371,197.837,197.837,0,0,1,5.717,49.418c0,.4-.053,1.059-.026,1.509,0,0,14.955.4,14.955,0C872.386,1382.864,872.121,1376.141,871.592,1370.132Z" transform="translate(-851.142 -1290.143)"/><path class="d" d="M878.177,1383.558c0,.4-.212.688-.45.688h0c-.238,0-.45-.318-.45-.688H864.466c0,.4-.212.688-.45.688h0c-.265,0-.45-.318-.45-.715a191.615,191.615,0,0,0-1.059-21.89,170.174,170.174,0,0,0-4.9-27.369,1.556,1.556,0,0,1-.053-.37s-.609-4.1,5.85-4.209,9.344,3.044,9.555,3.812c0,.053.794,2.912,1.826,8.073.344,1.72.715,3.679,1.085,5.876a185.327,185.327,0,0,1,2.117,22.578C878.495,1376.067,878.68,1381.149,878.177,1383.558Z" transform="translate(-855.848 -1290.069)"/><path class="e" d="M876.595,1524.42h50.239s-1.165-4.738-30.255-4.023C875.986,1520.9,876.595,1524.42,876.595,1524.42Z" transform="translate(-869.856 -1430.243)"/><g transform="translate(2.636 94.923)"><path class="c" d="M861.1,1587.318c5.823-29.487,4.315-47.565,4.315-47.8-.027-.45.82-.874,1.27-.874s2.462-.132,2.7.265c.318.5,1.482,22.79-7.2,48.439H861.1Z" transform="translate(-861.1 -1538.62)"/></g><g transform="translate(41.022 94.923)"><path class="c" d="M1014.64,1587.318c-5.823-29.487-4.314-47.565-4.314-47.8.026-.45-.82-.874-1.271-.874s-2.462-.132-2.7.265c-.318.5-1.482,22.79,7.2,48.439h1.085Z" transform="translate(-1006.123 -1538.62)"/></g><g transform="translate(50.313 94.923)"><path class="c" d="M1049.74,1587.318c-5.823-29.487-4.315-47.565-4.315-47.8.026-.45-.82-.874-1.27-.874s-2.462-.132-2.7.265c-.318.5-1.482,22.79,7.2,48.439h1.085Z" transform="translate(-1041.223 -1538.62)"/></g><g transform="translate(12.006 94.923)"><path class="c" d="M896.5,1587.318c5.823-29.487,4.314-47.565,4.314-47.8-.026-.45.821-.874,1.27-.874s2.462-.132,2.7.265c.318.5,1.482,22.79-7.2,48.439H896.5Z" transform="translate(-896.5 -1538.62)"/></g><path class="c" d="M924.071,1533.853H873.832a1.034,1.034,0,0,1-1.032-1.032v-.688a1.034,1.034,0,0,1,1.032-1.032h50.239a1.034,1.034,0,0,1,1.032,1.032v.688A1.051,1.051,0,0,1,924.071,1533.853Z" transform="translate(-867.067 -1438.167)"/><g transform="translate(9.777)"><path class="f" d="M1051.782,1360.126l16.7-3.626.979,2.409s-18.423,10.958-20.143,10.429C1047.574,1368.782,1051.782,1360.126,1051.782,1360.126Z" transform="translate(-1006.329 -1309.783)"/><path class="f" d="M1001.329,1618.441a1.462,1.462,0,0,0-.265,1.588h0c.371,1.059,1.641,2.25,3.123,3.415.185.159.344.291.5.423l.106.106.079.079c1.376,1.271.847,1.562,3.309,4.1,2.806,2.912,4.738,2.965,5.294,2.7.477-.239-.477-1.774-1.535-3.521a2.329,2.329,0,0,1-.159-.264,5.948,5.948,0,0,0-.423-.688c-1.217-2.091-.9-3.071-.609-6.194.238-2.541,3.944-14.161,3.944-14.161l-5.373-.926s-1.615,9.238-3.414,10.667c-.953.768-2.012.768-2.938,1.323a.807.807,0,0,0-.185.132A7.907,7.907,0,0,0,1001.329,1618.441Z" transform="translate(-971.069 -1492.58)"/><path class="g" d="M1001.329,1651.824a1.463,1.463,0,0,0-.265,1.588h0a11.581,11.581,0,0,0,3.123,3.415c.185.159.344.291.5.423l.106.106.079.08c1.376,1.27.847,1.562,3.309,4.1,2.806,2.912,4.738,2.964,5.294,2.7.477-.238-.477-1.773-1.535-3.52a12,12,0,0,1-5-3.679c-1.694-2.144-2.806-4.923-3.97-6.538a.8.8,0,0,0-.185.132A6.851,6.851,0,0,0,1001.329,1651.824Z" transform="translate(-971.069 -1525.963)"/><path class="f" d="M1154.141,1610.594c.344,1.668,2.7,1.376,5.347.741s2.012.133,5.77-.291,4.9-1.826,5-2.382c.106-.5-1.747-.662-3.759-.9-.238-.027-.5-.053-.768-.08-2.25-.291-3.891-1.747-5.956-2.938-1.932-1.138-4.818-5.744-4.818-5.744l-5.161.4s2.7,4.1,3.759,5.9a6.282,6.282,0,0,1,.5,3.521A9.943,9.943,0,0,0,1154.141,1610.594Z" transform="translate(-1080.525 -1488.095)"/><path class="g" d="M1171.206,1635.673c2.647-.635,2.012.132,5.77-.291s4.9-1.827,5-2.382c.106-.5-1.747-.662-3.759-.9l-.026.026a10.674,10.674,0,0,1-5.4,1.667c-2.541.053-5.267-.662-7.014-.635a5.7,5.7,0,0,0,.053,1.773C1166.2,1636.573,1168.559,1636.309,1171.206,1635.673Z" transform="translate(-1092.242 -1512.433)"/><path class="f" d="M1122.9,1346.619s1.218-3.018,2.594-3.123,5.665-.794,5.956-.185a4.21,4.21,0,0,1-.926,3.626c-.927.794-6.644,2.091-6.644,2.091Z" transform="translate(-1060.745 -1299.901)"/><path class="h" d="M1042.382,1495.136l-11.117,29.91a10.132,10.132,0,0,1-3.335-.318,14.008,14.008,0,0,1-3.229-1.562s2.753-28.719,7.808-34.7C1037.564,1482.51,1042.382,1495.136,1042.382,1495.136Z" transform="translate(-988.538 -1405.644)"/><path class="g" d="M908.329,1447.9s31.948-10.8,39.069-8.5,28.507,44.865,28.507,44.865a4.163,4.163,0,0,1-1.8,1.138,17.277,17.277,0,0,1-4.182.423s-19.3-16.543-21.6-21.387c-2.3-4.817-3.229-9.423-5.506-8.973-2.3.45-29.646,11.25-35.866,4.817a17.949,17.949,0,0,1-4.579-14.8Z" transform="translate(-898.45 -1370.507)"/><path class="i" d="M920.525,1181.247a7.539,7.539,0,0,0-4.182-.794,1.825,1.825,0,0,1,.873-.423,6.59,6.59,0,0,0-2.329.609c-9.979-3.838-11.541,10.852-11.355,14.267.212,3.414.238,7.358-4.738,10.4-9.794,6.035-1.535,16.543-1.535,16.543.079.053,4.553,7.65,4.553,7.65-.265-2.753,12.493-17.337,19.137-21.678,1.615-2.382,2.2-6.591,2.223-6.908a18.47,18.47,0,0,1-1.35,6.247C927.461,1201.972,924.178,1183.311,920.525,1181.247Z" transform="translate(-892.436 -1180.004)"/><path class="f" d="M968.3,1258.62c.026.026-3.2,1.694-5.638,1.032-2.3-.635-3.785-3.6-3.759-3.6.979-.185,1.244-1.535,1.218-7.253l.45.08,7.385,1.456s-.159,2.329-.185,4.5C967.766,1256.688,967.872,1258.408,968.3,1258.62Z" transform="translate(-940.153 -1230.59)"/><path class="j" d="M972.485,1250.482s-.159,2.329-.185,4.5c-4.129-.106-6.326-3.891-7.2-5.982Z" transform="translate(-944.713 -1230.737)"/><path class="i" d="M954.7,1203.859a21.237,21.237,0,0,1-2.673-6.353c-.371-2.091.688-9.82,8.47-8.708a10.432,10.432,0,0,1,4.394,1.668c1.694,1.138,4.129,3.6,1.4,10.349l-.715,2.276Z" transform="translate(-935.052 -1186.39)"/><path class="f" d="M970.772,1216.555s-9.767.159-9.767-5.929-1.271-10.164,4.976-10.535,7.464,1.959,7.941,4C974.425,1206.126,973.313,1216.343,970.772,1216.555Z" transform="translate(-941.624 -1194.745)"/><path class="i" d="M961.753,1196.238s-2.674,7.147-6.776,8.206-5.876-.053-5.876-.053a11.721,11.721,0,0,0,3.812-6.882C952.885,1197.509,959.741,1192.824,961.753,1196.238Z" transform="translate(-932.948 -1191.025)"/><path class="i" d="M994.4,1198.649a8.72,8.72,0,0,1,2.488,3.15c.476,1.562.715,4.738,1.641,4.632,0,0,2.012-4.844-.238-7.6C995.856,1195.9,994.4,1198.649,994.4,1198.649Z" transform="translate(-966.258 -1192.853)"/><path class="g" d="M900.371,1305.037c-.953-4.05,2.3-11.885,5.744-18.37,3.1-5.876,6.326-10.667,6.617-10.482,8.179,4.87,8.92.821,8.92.821h0s7.438.979,9.555,4.606c2.62,4.5,5.426,17.073,8.232,19.455-.423,1.324-.238,2.012.212,3.653.106.344.212.688.318,1.006a19.627,19.627,0,0,0,1.4,2.885c-1.429.874-4.182,2.515-6.194,1.323-3.1-1.8-5.506-7.332-6.856-9.5a.026.026,0,0,0-.026-.026c-2.938,16.7,1.059,20.514-.979,22.261-2.144,1.853-5.214-.874-11.964,2.038-4.42,1.906-10.561,4.685-14.69,5.161-2.17.265-3.785-.132-4.315-1.588C894.866,1324.042,902.224,1312.74,900.371,1305.037Z" transform="translate(-894.013 -1250.723)"/><path class="k" d="M990,1247.078s.185.768,2.117.662c0,0,1.615-.106,1.562-.953A4.873,4.873,0,0,0,990,1247.078Z" transform="translate(-963.022 -1228.948)"/><path class="h" d="M896.51,1378.393c.529,1.456,2.144,1.853,4.314,1.588,2.859-1.244,15.22-6.035,15.061-9.264-.212-4.791-2.382-4.95-.847-10.879,1.218-4.765-10.191-13.605-11.991-15.537-3.415,6.485-3.52,6.8-2.541,10.852C902.334,1362.829,894.975,1374.131,896.51,1378.393Z" transform="translate(-894.123 -1300.812)"/><path class="g" d="M889.064,1310.907a18.265,18.265,0,0,1,5.982-5.532c-.344-.9,9.211-12.6,9.211-14.426S906.8,1276.1,906.8,1276.1s-7.967.5-10.72,4.341C892.638,1285.259,885.465,1303.76,889.064,1310.907Z" transform="translate(-888.08 -1250.664)"/><path class="f" d="M897.494,1386.8l15.908,4.156-1.482,2.673s-19.376-.132-20.408-1.324C890.48,1391.141,897.494,1386.8,897.494,1386.8Z" transform="translate(-890.527 -1332.062)"/><path class="h" d="M1017.8,1367.8c1.35,2.2,3.759,7.7,6.855,9.5,2.038,1.191,4.791-.45,6.194-1.323a21.042,21.042,0,0,1-1.4-2.885c-1.138.265-2.515.582-3.415.873C1024.285,1374.47,1017.8,1367.8,1017.8,1367.8Z" transform="translate(-983.464 -1318.092)"/><path class="f" d="M970.309,1399.355s5-1.4,6.194-1.085,5.267,3.044,4.685,3.759c-.582.741-4.156-.45-5.823-.212-1.641.212-2.938,1.032-4.129.873a15.2,15.2,0,0,1-2.435-.635Z" transform="translate(-947.434 -1340.462)"/><path class="f" d="M974.5,1396.9a19.245,19.245,0,0,0,3.15-1.959.187.187,0,0,1,.291.026c.185.291.371.874-.5,1.429A4.688,4.688,0,0,1,974.5,1396.9Z" transform="translate(-951.625 -1338.008)"/></g><g transform="translate(32.44 40.524)"><path class="l" d="M997.02,1423.853H973.7a1.841,1.841,0,0,1,1.853-1.853H997.02Z" transform="translate(-973.7 -1398.469)"/><path class="l" d="M1036.867,1333.1h36.078l-8.655,25.384H1028Z" transform="translate(-1013.627 -1333.1)"/><path class="m" d="M1074.945,1333.1l-8.656,25.384H1030l8.867-25.384Z" transform="translate(-1015.098 -1333.1)"/><path class="n" d="M1116.377,1375.347a2.313,2.313,0,0,1-2.171,1.747,1.341,1.341,0,0,1-1.35-1.747,2.313,2.313,0,0,1,2.171-1.747A1.333,1.333,0,0,1,1116.377,1375.347Z" transform="translate(-1075.985 -1362.88)"/><path class="o" d="M1108.99,1333.1l-8.655,25.384H1076.3c15.908-5.426,20.143-22,20.858-25.384Z" transform="translate(-1049.143 -1333.1)"/></g></g><g transform="translate(0 65.908)"><g transform="translate(5.262 3.891)"><path class="p" d="M802.446,1517.523a.937.937,0,0,0,.926-.767l4.526-25.675,6.511-36.925,1.826-10.323-4.632-.132-.794,5.982-5.664,42.113-3.362,24.961A.67.67,0,0,0,802.446,1517.523Z" transform="translate(-801.778 -1443.7)"/><path class="q" d="M835.8,1449.882a6.628,6.628,0,0,1,3.626,4.473l1.826-10.323-4.632-.132Z" transform="translate(-826.795 -1443.847)"/></g><g transform="translate(107.518 3.891)"><g transform="translate(0.026)"><path class="p" d="M1201.991,1517.523a.937.937,0,0,1-.926-.767l-4.526-25.675-6.511-36.925-1.826-10.323,4.632-.132.794,5.982,5.664,42.113,3.362,24.961A.685.685,0,0,1,1201.991,1517.523Z" transform="translate(-1188.2 -1443.7)"/></g><path class="q" d="M1193.553,1449.882a6.628,6.628,0,0,0-3.626,4.473l-1.826-10.323,4.632-.132Z" transform="translate(-1188.1 -1443.847)"/></g><path class="q" d="M784.732,1437.1H903.526a2.836,2.836,0,0,0,2.832-2.832v-2.435a2.835,2.835,0,0,0-2.832-2.832H784.732a2.835,2.835,0,0,0-2.832,2.832v2.435A2.836,2.836,0,0,0,784.732,1437.1Z" transform="translate(-781.9 -1429)"/></g></g><path class="r" d="M865.166,1716.553H166.694a.8.8,0,0,1-.794-.794v-.265a.8.8,0,0,1,.794-.794h698.5a.8.8,0,0,1,.794.794v.265A.819.819,0,0,1,865.166,1716.553Z" transform="translate(-165.9 -1344.464)"/><g transform="translate(443.002 215.888)"><path class="f" d="M1901.108,1412.7s-3.07,3.812-2.117,4.341,3.52,1.509,4.1.873.794-5.109.794-5.109Z" transform="translate(-1883.121 -1338.289)"/><path class="f" d="M1899.259,1412.9a4.6,4.6,0,0,0-1.747,1.085c-.476.635-1.588,1.668-1.323,1.932s1.853-.953,1.853-.953Z" transform="translate(-1881.166 -1338.436)"/><path class="s" d="M1918.962,1219.9s-3.468,32.346-3.785,33.245c-.079.212-.344,1.218-.715,2.7-.556,2.091-1.323,5.135-2.065,7.994-1.112,4.341-2.117,8.338-2.117,8.338l-3.018-1.006s-.159-15.723.609-19.323c.768-3.626,3.255-25.861,4.5-28.852C1913.641,1220.033,1918.962,1219.9,1918.962,1219.9Z" transform="translate(-1889.328 -1196.522)"/><g transform="translate(0 77.429)"><path class="t" d="M1861.952,1450.846,1843,1445.87a4.664,4.664,0,0,1-3.308-5.664l2.144-8.205a4.664,4.664,0,0,1,5.664-3.309l18.952,4.976a4.664,4.664,0,0,1,3.309,5.664l-2.144,8.205A4.634,4.634,0,0,1,1861.952,1450.846Z" transform="translate(-1839.545 -1427.368)"/><path class="u" d="M1851.244,1429.394l-2.17,8.311a4.576,4.576,0,0,0,1.138,4.368,4.363,4.363,0,0,0,1.244.926h0a5.109,5.109,0,0,0,.953.371l18.9,4.95a4.683,4.683,0,0,0,5.691-3.309l2.171-8.311a4.691,4.691,0,0,0-3.309-5.691l-6.511-1.721.476-1.773a1.534,1.534,0,0,0-1.085-1.879l-.714-.185-3.971-1.032-.979-.265a1.491,1.491,0,0,0-1.165.159,1.568,1.568,0,0,0-.715.927l-.477,1.773-3.759-.979c-.159-.027-.291-.08-.45-.106h0a4.658,4.658,0,0,0-4.05,1.35h0A4.891,4.891,0,0,0,1851.244,1429.394Zm17.152-.318-6.776-1.774.477-1.773a.552.552,0,0,1,.688-.4l1.694.45,3.123.821.847.212c.053.026.106.026.159.079a.541.541,0,0,1,.238.635Z" transform="translate(-1846.438 -1424.1)"/></g><path class="f" d="M1903.565,1426.031s.847-1.429.53-1.906c-.318-.5-1.456,1.456-1.456,1.456s.768-1.694.476-1.959-1.482,1.667-1.482,1.667.741-1.641.477-1.694-1.138,1.376-1.138,1.376.45-1.218.053-1.165c-.423.053-1.324,1.165-1.324,1.165Z" transform="translate(-1883.777 -1346.3)"/><path class="v" d="M1924.342,1313.714c-.556,2.091-1.323,5.135-2.064,7.994a30.045,30.045,0,0,1-1.456-6.353c-.688-5.347,1.456-16.755,1.456-16.755Z" transform="translate(-1899.208 -1254.39)"/><path class="f" d="M2079.136,1407.7s3.361,2.726,3.785,3.573a17.944,17.944,0,0,1,1.4,5.029c-.053,1.006-2.568-2.329-3.309-2.594s.768,1.376.609,1.72-1.747-.794-2.355-1.165-1.032-2.938-1.906-4.315C2076.437,1408.547,2079.136,1407.7,2079.136,1407.7Z" transform="translate(-2014.272 -1334.612)"/><path class="w" d="M1918.1,1690.766h16.755c1.191-.82-.318-8.761-.318-8.761s-4.579-1.747-5.347,1.8c-.794,3.52-5.823,4.632-8.47,5.082C1918.841,1689.178,1918.285,1690.158,1918.1,1690.766Z" transform="translate(-1897.307 -1535.995)"/><path class="w" d="M2011.9,1690.766h16.755c1.191-.82-.317-8.761-.317-8.761s-4.58-1.747-5.347,1.8c-.794,3.52-5.823,4.632-8.47,5.082C2012.668,1689.178,2012.085,1690.158,2011.9,1690.766Z" transform="translate(-1966.279 -1535.995)"/><path class="x" d="M1935.1,1406.1s.741,9.4,1.641,20.672c1.191,15.326,4.447,53.362,4.447,53.362s2.118,1.826,6.829.821a150.564,150.564,0,0,0,5.214-28.084c.026-.238.026-.5.053-.741,1.112-15.246,2.859-47.327,2.859-47.327Z" transform="translate(-1909.807 -1332.48)"/><path class="w" d="M1934.1,1397.5s1.006,12.626,1.906,23.928l16.49,26.1c.026-.238.026-.5.053-.741,1.112-15.246,2.859-47.327,2.859-47.327Z" transform="translate(-1909.072 -1327.112)"/><path class="x" d="M1952.3,1381.572s11.964,29.778,15.776,41.054c2.726,8.047,10.4,36.236,10.4,36.236a7.744,7.744,0,0,0,6.141-.953s2.859-28.8-2.912-36.924c-3.071-4.315-.768-44.786-13.182-45.13C1956.112,1375.484,1952.3,1381.572,1952.3,1381.572Z" transform="translate(-1922.454 -1311.185)"/><path class="s" d="M1956.255,1268.4c-4.976,2.806-26.337,2.753-27.343.529-2.223-4.923-2.753-29.99-1.72-37.666,0,0,.529-11.805,1.72-11.3,7.888-3.626,20.672-.344,20.672-.344,3.441,1.006,3.15,8.894,4.1,19.932.132,1.429.265,2.912.423,4.447.688,6.829,1.668,14.664,3.176,22.922C1957.366,1267.5,1957,1267.976,1956.255,1268.4Z" transform="translate(-1903.619 -1195.312)"/><path class="f" d="M1967.232,1194.31c-.132,2.118-2.885,1.879-6.194,1.112-3.309-.741-2.118-2.7-2.118-2.7s.053-1.509.265-3.309c.08-.662.185-1.35.291-2.012.053-.318.133-.662.186-.979.424-1.853,6.617-.053,6.564.423C1966.12,1188.2,1967.1,1192.643,1967.232,1194.31Z" transform="translate(-1927.169 -1171.303)"/><path class="w" d="M1963.338,1224.312l-.238-2.912,3.653.688-1.4,2.594Z" transform="translate(-1930.396 -1197.625)"/><path class="v" d="M1953.7,1207.3l-2.2,3.335a4.887,4.887,0,0,0,1.906,3.547l2.991-2.779C1956.4,1211.376,1954.465,1210.635,1953.7,1207.3Z" transform="translate(-1921.866 -1187.257)"/><path class="v" d="M1970,1212.847a7.713,7.713,0,0,0,1.826,3.256s4.685-1.271,5.8-3.653l-2.435-3.15C1975.162,1209.3,1975.056,1211.682,1970,1212.847Z" transform="translate(-1935.469 -1188.727)"/><path class="y" d="M1967.594,1192.021a11.453,11.453,0,0,1-7.094,1.509c.08-.662.186-1.35.291-2.012.821-.185,1.509-.318,1.509-.318Z" transform="translate(-1928.484 -1175.419)"/><path class="f" d="M1964.065,1153.924c-1.456,4-6.776,2.991-9.026,2.329-.635-.185-1.032-.318-1.032-.318-.688-.318-.926-1.535-.847-3.07.132-3.044,1.323-7.358,2.011-8.391,1.032-1.562,2.779-3.15,7.914-.926C1968.247,1145.745,1965.944,1148.789,1964.065,1153.924Z" transform="translate(-1923.076 -1139.572)"/><path class="w" d="M1970.056,1143.865c-1.615,1.323-5.109,3.785-5.109,3.785a6,6,0,0,0,.874-1.773,1.45,1.45,0,0,0,.053-.609,3.24,3.24,0,0,1,.477-1.853c.212-.344.291-.715.026-.953-.45-.424-1.191-.026-1.694.291a1.006,1.006,0,0,1-1.086.027h0c-1.376-.874.132-2.409-.979-3.679-1.138-1.27-6.009-1.456-5.823-2.25-1.667-.953-.609-4.42-.582-4.606a18.067,18.067,0,0,0,5.373-.529c2.435-.609,5.109.953,5.956,1.588a1.307,1.307,0,0,0-.132-.582,1.317,1.317,0,0,1,.371.794c.026.026.053.053.053.08a1.707,1.707,0,0,1,.767.185s-.212-.053-.317.053c0,.026-.027.026-.053.026C1971.432,1136.136,1971.379,1142.78,1970.056,1143.865Z" transform="translate(-1925.07 -1131.578)"/><path class="k" d="M1958.43,1181.23s-.265.5-1.562.08c0,0-1.111-.344-.926-.927A3.786,3.786,0,0,1,1958.43,1181.23Z" transform="translate(-1925.117 -1167.461)"/><path class="z" d="M1955.983,1232.4s-2.938,36.978-2.885,40.048,3.229,6.326,3.229,6.326a13.525,13.525,0,0,0,3.044-5.744c.5-2.938-1.4-40.286-1.4-40.286Z" transform="translate(-1923.041 -1205.713)"/><path class="s" d="M2013.2,1223.5s4.712,1.138,8.47,8.311c3.732,7.173,6.67,21.652,8.47,25.464,1.773,3.812,3.017,15.855,3.017,15.855l-2.832,1.376s-6.8-12.335-7.835-16.358c-.556-2.2-8.867-19.693-8.867-19.693Z" transform="translate(-1967.235 -1199.169)"/><path class="v" d="M2020.261,1322.032h0c-8.894-1.271-6.353-30.7-5.664-30.837.688-.106,3.256,5.267,3.256,5.267l.238,1.191c.688,6.829,1.667,14.664,3.176,22.922C2021.373,1321.133,2021,1321.609,2020.261,1322.032Z" transform="translate(-1967.625 -1248.945)"/></g><g transform="translate(528.492 149.47)"><g transform="translate(10.926 96.705)"><path class="w" d="M2420.305,1646.041s3.706,3.388,2.991,5.77c-.714,2.409-4.076,4-4.526,6.935s-2.25,4.526-3.891,4.526h-7.755s-1.191-2.064,1.694-2.7,3.97-4.076,3.812-7.279a55.878,55.878,0,0,1,.265-7.464l6.141-1.429Z" transform="translate(-2353.126 -1538.946)"/><path class="w" d="M2225.558,1675.316s.662,7.7-.953,8.5l-20.8-.053s0-2.409,3.335-2.938,9.211-2.488,10.217-6.856C2218.332,1669.625,2225.558,1675.316,2225.558,1675.316Z" transform="translate(-2203.8 -1559.486)"/><path class="z" d="M2219.6,1268.053s1.085,13.473,2.382,29.672c1.747,22.022,3.864,49.048,4.076,54.183.371,8.894,1.8,23.134,1.8,23.134s3.441,3.388,10.3,1.959a229.515,229.515,0,0,0,7.861-41.8c.027-.344.053-.715.08-1.059,1.615-21.864,4.156-67.947,4.156-67.947Z" transform="translate(-2215.418 -1260.853)"/><path class="w" d="M2219.6,1267.979s1.085,13.473,2.382,29.672l24.034,37.454c.026-.344.053-.715.079-1.059,1.615-21.864,4.156-67.947,4.156-67.947Z" transform="translate(-2215.418 -1260.78)"/><path class="z" d="M2238.5,1254.788s19.773,48.81,32.8,71.758,17.073,29.354,17.073,29.354,7.438-2.938,8.126-4.923c0,0-4.976-44.283-13.685-55.083-4.924-6.088-9.159-19.64-8.947-26.046.37-11.038-3.785-23.849-3.785-23.849Z" transform="translate(-2229.315 -1246)"/></g><path class="f" d="M2166.856,1282s-3.705,5-3.97,6.326-.582,6.088-.159,7.491c.45,1.4,2.753-4.156,3.679-4.791s-.582,2.2-.212,2.621,2.144-1.747,2.832-2.488.371-4.447,1.112-6.7S2166.856,1282,2166.856,1282Z" transform="translate(-2162.52 -1175.766)"/><path class="k" d="M2192.679,1007.4s-5,46.454-5.426,47.777c-.106.291-.477,1.747-1.033,3.865-.794,3.018-1.906,7.359-2.938,11.488-1.588,6.247-3.309,11.62-3.309,11.62a4.5,4.5,0,0,1-2.568.344,2.7,2.7,0,0,1-1.906-1.165s.185-22.817,1.3-28c1.112-5.214,4.685-37.136,6.485-41.451C2185.055,1007.612,2192.679,1007.4,2192.679,1007.4Z" transform="translate(-2172.064 -973.851)"/><path class="aa" d="M2201.371,1142.378c-.794,3.018-1.905,7.359-2.938,11.488a44.713,44.713,0,0,1-2.091-9.105c-1.005-7.676,2.091-24.061,2.091-24.061Z" transform="translate(-2187.241 -1057.161)"/><path class="k" d="M2247.191,1077.088c-7.173,4.05-37.851,3.944-39.281.768-3.177-7.094-3.97-43.066-2.462-54.13,0,0,.768-16.967,2.462-16.226,11.329-5.215,29.672-.476,29.672-.476,4.95,1.456,4.526,12.758,5.9,28.64.186,2.038.371,4.182.583,6.379.979,9.794,2.408,21.069,4.552,32.954C2248.8,1075.817,2248.249,1076.505,2247.191,1077.088Z" transform="translate(-2193.543 -972.125)"/><path class="f" d="M2262.924,970.627c-.185,3.044-4.156,2.7-8.92,1.615s-3.044-3.891-3.044-3.891.08-2.144.37-4.738c.106-.926.238-1.932.424-2.912.079-.476.185-.953.291-1.4.609-2.673,9.5-.106,9.45.635C2261.335,961.866,2262.738,968.245,2262.924,970.627Z" transform="translate(-2227.328 -937.608)"/><path class="w" d="M2257.371,1013.782,2257,1009.6l5.267,1.006-2.012,3.732Z" transform="translate(-2231.992 -975.469)"/><path class="aa" d="M2243.55,989.3l-3.15,4.791a6.982,6.982,0,0,0,2.727,5.082l4.314-4S2244.662,994.117,2243.55,989.3Z" transform="translate(-2219.786 -960.542)"/><path class="aa" d="M2267,997.309s.9,3.2,2.621,4.659c0,0,6.723-1.8,8.311-5.241l-3.494-4.526S2274.253,995.615,2267,997.309Z" transform="translate(-2239.345 -962.674)"/><path class="y" d="M2263.417,967.391a16.64,16.64,0,0,1-10.217,2.17c.106-.926.238-1.932.423-2.912,1.165-.291,2.144-.45,2.144-.45Z" transform="translate(-2229.198 -943.556)"/><path class="f" d="M2258.516,912.677c-2.091,5.744-9.715,4.288-12.97,3.362-.926-.265-1.482-.476-1.482-.476-1.006-.45-1.323-2.2-1.218-4.42.185-4.367,1.906-10.561,2.885-12.044,1.482-2.25,4-4.526,11.382-1.35C2264.525,900.9,2261.189,905.292,2258.516,912.677Z" transform="translate(-2221.57 -892.072)"/><path class="u" d="M2266.925,898.294c-2.329,1.906-7.359,5.426-7.359,5.426a9.284,9.284,0,0,0,1.244-2.568,2.186,2.186,0,0,0,.079-.873,4.673,4.673,0,0,1,.688-2.647c.318-.5.423-1.006.026-1.376-.635-.609-1.721-.053-2.435.45a1.452,1.452,0,0,1-1.562.053h0c-1.986-1.244.212-3.441-1.4-5.294-1.615-1.826-8.656-2.091-8.365-3.229-2.408-1.35-.874-6.353-.847-6.617a26.405,26.405,0,0,0,7.729-.768c3.494-.873,7.332,1.376,8.55,2.276a1.891,1.891,0,0,0-.185-.847,1.883,1.883,0,0,1,.529,1.138c.053.053.08.08.053.106a2.163,2.163,0,0,1,1.112.265.441.441,0,0,0-.45.079l-.053.053C2268.91,887.177,2268.857,896.706,2266.925,898.294Z" transform="translate(-2224.262 -880.653)"/><path class="k" d="M2250.391,951.9s-.371.715-2.25.132c0,0-1.588-.5-1.324-1.35A5.522,5.522,0,0,1,2250.391,951.9Z" transform="translate(-2224.482 -932.137)"/><path class="z" d="M2246.854,1025.4s-4.208,53.124-4.156,57.544,4.659,9.105,4.659,9.105,3.652-4.023,4.367-8.232c.714-4.235-2.038-57.862-2.038-57.862Z" transform="translate(-2221.476 -987.086)"/><path class="aa" d="M2339.135,1154.177h0c-12.785-1.827-9.132-44.124-8.126-44.284s4.685,7.57,4.685,7.57l.344,1.721c.979,9.794,2.408,21.069,4.553,32.954C2340.749,1152.906,2340.193,1153.594,2339.135,1154.177Z" transform="translate(-2285.487 -1049.213)"/><g transform="translate(52.241 109.48)"><path class="t" d="M2398.853,1327.438l-27.025,7.861a6.67,6.67,0,0,1-8.258-4.526l-3.415-11.7a6.671,6.671,0,0,1,4.526-8.259l27.025-7.861a6.671,6.671,0,0,1,8.259,4.526l3.414,11.7A6.659,6.659,0,0,1,2398.853,1327.438Z" transform="translate(-2359.886 -1300.457)"/><path class="u" d="M2373.729,1311.823l3.441,11.832a6.581,6.581,0,0,0,4.632,4.552,6.246,6.246,0,0,0,2.223.239h0a6.721,6.721,0,0,0,1.429-.239l26.972-7.861a6.715,6.715,0,0,0,4.553-8.285l-3.441-11.832a6.714,6.714,0,0,0-8.285-4.553l-9.291,2.7-.742-2.515a2.206,2.206,0,0,0-2.726-1.509l-1.006.291-5.638,1.641-1.4.4a2.191,2.191,0,0,0-1.323,1.059,2.167,2.167,0,0,0-.185,1.668l.741,2.515-5.373,1.562a4.111,4.111,0,0,0-.609.212h0a6.739,6.739,0,0,0-4,4.632h0A6.789,6.789,0,0,0,2373.729,1311.823Zm20.91-13.049-9.634,2.832-.742-2.515a.848.848,0,0,1,.556-1.032l2.435-.715,4.447-1.3,1.191-.344a.728.728,0,0,1,.238-.027.818.818,0,0,1,.768.582Z" transform="translate(-2369.887 -1294.265)"/></g><path class="f" d="M2422.273,1277.285s-.847,7.014.741,6.908,5.426-.847,5.664-2.065c.265-1.218-2.938-6.829-2.938-6.829Z" transform="translate(-2353.353 -1170.84)"/><path class="f" d="M2418.971,1282.7a6.471,6.471,0,0,0-1.3,2.673c-.106,1.165-.688,3.229-.132,3.362.53.132,1.535-2.567,1.535-2.567Z" transform="translate(-2349.865 -1176.281)"/><path class="k" d="M2329,1012.6s6.776,1.615,12.149,11.938c5.373,10.3,9.609,31.1,12.149,36.581,2.567,5.479,4.5,21.943,4.5,21.943a2.479,2.479,0,0,1-1.773,1.112,7.89,7.89,0,0,1-2.17.132s-10.084-16.146-11.54-21.969c-.794-3.15-12.758-28.3-12.758-28.3Z" transform="translate(-2284.934 -977.674)"/></g><g transform="translate(72.028 167.887)"><path class="f" d="M637.906,1660.179l-1.006-7.306,4.262-3.573,1.35,9.688Z" transform="translate(-584.258 -1464.262)"/><path class="w" d="M645.648,1689.364H628.232a9.373,9.373,0,0,1,.5-4.659c.873-1.932,2.224-3.123,2.356-4.606a5.211,5.211,0,0,0,4.976,1.535,19.277,19.277,0,0,0,3.017,3.917C640.222,1686.373,645.3,1686.082,645.648,1689.364Z" transform="translate(-577.813 -1486.909)"/><path class="m" d="M621.193,1290.389c-1.138,9.158-2.065,17.787-2.832,25.834-4.05,42.88-3.256,69.085-3.256,69.085s-.291.768-2.806.794a15.44,15.44,0,0,1-2.806-.291s-9.079-28-8.364-43.939a24.528,24.528,0,0,1,.715-5.162c2.17-8.153-8.047-39.333,3.07-50.953C616.005,1274.164,621.723,1286.181,621.193,1290.389Z" transform="translate(-556.852 -1193.335)"/><path class="l" d="M621.193,1290.389c-1.138,9.158-2.065,17.787-2.832,25.834l-17.232,25.649a24.532,24.532,0,0,1,.715-5.162c2.171-8.153-8.047-39.333,3.07-50.953C616.005,1274.164,621.723,1286.181,621.193,1290.389Z" transform="translate(-556.852 -1193.335)"/><path class="f" d="M730.342,959.913s-.424-2.091-.9-3.679c-.212-.715,1.244-5.347,2.25-5.929s3.626,2.568,2.885,4.95c-.371,1.244-1.006,5.241-1.006,5.241Z" transform="translate(-652.29 -950.234)"/><path class="f" d="M726.209,974.159s-.556-1.218-1.032-1.4c-.5-.185-1.032-2.17-1.376-2.965,0,0,.344-.5.953.159.371.4,1.218,1.588,1.218,1.588Z" transform="translate(-648.156 -964.48)"/><path class="f" d="M444.182,1001.384a10.484,10.484,0,0,0-.4.979v-.291c0-.741-2.753-4.738-3.891-5-1.138-.238-2.726,3.494-1.324,5.585.715,1.059,2.488,4.712,2.488,4.712l2.938-1.509s.159-1.323.582-1.641c.424-.344.344-2.382.45-3.256C445.056,1000.961,444.579,1000.564,444.182,1001.384Z" transform="translate(-438.02 -984.665)"/><path class="f" d="M529.518,1655.321c-.238-2.356-.318-8.523-.318-8.523s6.3-2.012,6.062-.635a43.9,43.9,0,0,0-.821,10.138l-2.541,1.509Z" transform="translate(-505.065 -1461.601)"/><path class="m" d="M560.187,1311.605s-24.3,66.623-29.09,95.528a4.788,4.788,0,0,1-3.176.5,3.549,3.549,0,0,1-2.991-1.906s-4.394-34.648,4.341-46.665c6.009-8.259-2.594-44.548,11.382-47.46S560.187,1311.605,560.187,1311.605Z" transform="translate(-501.113 -1215.001)"/><path class="h" d="M534.6,1036.555h0a.1.1,0,0,0-.026-.079q-.2-.874-.476-1.747h0a37.763,37.763,0,0,0-1.773-4.9c-.371-.847-.768-1.615-1.165-2.329-.053-.106-.132-.212-.185-.318h0a6.926,6.926,0,0,0-2.779-3.017,8.287,8.287,0,0,0-4.579-.185,2.1,2.1,0,0,1,.873-.582,7.008,7.008,0,0,0-2.356,1.006c-11.2-2.515-10.535,13.341-9.767,16.914.768,3.6-2.832,5.347-7.941,9-9.714,7.015-9.529,14.426-9.529,14.426a2.558,2.558,0,0,1,.291.132c.4-.953,1.218-2.779,2.091-3.176a32.805,32.805,0,0,0-.926,3.759c1.482.821,3.52,2.065,5.744,3.494h0c2.965,1.906,6.247,4.1,8.867,5.876a5.8,5.8,0,0,1-.053-2.329l.847,2.594.106.344c1.668,1.138,2.991,2.038,3.679,2.515a1.1,1.1,0,0,1,.185.132c.185.132.291.212.291.212-.212-.927.768-3.309,2.409-6.326.106-.212.238-.423.344-.635.529-.953,1.112-1.959,1.747-2.991.238-.371.45-.741.715-1.138h0c.185-.318.4-.609.582-.926h0c.476-.741.979-1.482,1.482-2.223,1.3-1.932,2.673-3.838,4.05-5.585a51.589,51.589,0,0,1,5.532-6.22c.053-.106.106-.212.159-.344a10.7,10.7,0,0,0,.609-1.906c.053-.212.079-.4.132-.609a24.672,24.672,0,0,0,.4-4.738,27.43,27.43,0,0,1-.053,4.791,5.11,5.11,0,0,1-.106.715h0a9.2,9.2,0,0,1-.291,1.271,6.416,6.416,0,0,0,.715-1.085,7.693,7.693,0,0,0,.371-.821C536.112,1046.217,535.742,1041.24,534.6,1036.555Z" transform="translate(-479.844 -1004.034)"/><path class="f" d="M608.175,1108.332c.027,0-3.123,2.3-5.823,1.985-2.541-.291-4.579-3.229-4.553-3.229,1.006-.371,1.085-1.826.159-7.888l.476.026,8.047.4s.185,2.488.529,4.817C607.3,1106.347,607.7,1108.2,608.175,1108.332Z" transform="translate(-555.507 -1059.77)"/><path class="j" d="M608.247,1099.671s.185,2.488.529,4.817c-4.394.529-7.306-3.124-8.576-5.188Z" transform="translate(-557.272 -1059.843)"/><path class="h" d="M585.1,1049.575a23.143,23.143,0,0,1-3.838-6.3c-.715-2.144-.821-10.535,7.6-10.588a11.1,11.1,0,0,1,4.9,1.059c1.959.953,4.95,3.176,3.123,10.773l-.4,2.541Z" transform="translate(-543.129 -1010.859)"/><path class="k" d="M589.016,1173.339a34.182,34.182,0,0,1-23.664,3.017l-10.852-1.747c.185-.5,1.562-8.761,1.747-9.211,2.329-6.035,6.617-38.751,10.164-40.365.9.979,3.52,1.667,5.744,1.482,2.568-.238,3.414-1.323,3.2-2.515,2.832,1.35,5.029,2.594,5.029,2.594C583.008,1130.458,589.016,1173.339,589.016,1173.339Z" transform="translate(-523.669 -1078.005)"/><path class="f" d="M603.049,1060.711s-10.35,1.72-11.3-4.738c-.979-6.458-2.965-10.588,3.6-11.937,6.564-1.376,8.205.9,9.052,2.991C605.246,1049.064,605.723,1060.1,603.049,1060.711Z" transform="translate(-550.275 -1018.898)"/><path class="h" d="M592.25,1039.185s-1.721,7.994-5.9,9.767-6.247.874-6.247.874a12.467,12.467,0,0,0,2.938-7.888C583.065,1041.937,589.576,1035.9,592.25,1039.185Z" transform="translate(-542.493 -1014.921)"/><path class="h" d="M623.7,1040.37a9.1,9.1,0,0,1,3.123,2.938c.768,1.562,1.509,4.923,2.462,4.659,0,0,1.376-5.479-1.456-8.02C624.838,1037.247,623.7,1040.37,623.7,1040.37Z" transform="translate(-574.552 -1015.392)"/><path class="x" d="M663.119,985.759a4.458,4.458,0,0,0-3.467-.423s-2.912,18.131-3.123,19.084-12.52,14.823-15.829,14.743c-2.991-.053-6.538,2.25-7.2,2.7,0,0,6.961,14.743,7.332,17.523.371,3.017,4,49.418,4,49.418s-.212,2.17,3.812,1.006,5.029-2.117,5.029-2.117-3.706-36.528-4.473-47.883a20.486,20.486,0,0,0-.715-4.235,4.3,4.3,0,0,1,.688-3.653c5.109-6.988,13.155-18.343,13.605-20.752C663.41,1007.649,663.119,985.759,663.119,985.759Z" transform="translate(-581.758 -975.921)"/><path class="w" d="M536.548,1689.364H519.132a9.371,9.371,0,0,1,.5-4.659c.873-1.932,2.223-3.123,2.356-4.606a5.211,5.211,0,0,0,4.976,1.535,19.281,19.281,0,0,0,3.018,3.917C531.122,1686.373,536.2,1686.082,536.548,1689.364Z" transform="translate(-497.591 -1486.909)"/><path class="x" d="M497.457,1072.453c-.582-3.6-8.073-18.1-8.073-18.1s-4.738-1.429-7.861-.291-19.243-7.967-19.773-8.814-9.158-16.94-9.158-16.94a1.949,1.949,0,0,0-1.853.185,2.078,2.078,0,0,0-1.138,1.747s6.67,20.275,8.444,23.4c1.059,1.879,10.058,8.47,17.046,13.394a4.348,4.348,0,0,1,1.8,4.156c-.926,6.935-1.165,10.826-2.25,22.737-.9,9.873-1.244,28.957-1.244,28.957s7.808,2.7,13.182,3.07,6.564-5.32,6.564-5.32S498.065,1076.158,497.457,1072.453Z" transform="translate(-446.535 -1007.532)"/><path class="k" d="M624.6,1093.485a4.472,4.472,0,0,0,2.726.5c1.006-.159,1.244-1.35,1.244-1.35a4.221,4.221,0,0,0-1.826,0A8.269,8.269,0,0,0,624.6,1093.485Z" transform="translate(-575.214 -1054.876)"/></g><g transform="translate(305.806 52.18)"><path class="f" d="M1866.22,600.377s-4.844-8.6,0-10.349,7.014-.132,7.253,1.826-1.853,9.688-1.853,9.688Z" transform="translate(-1720.38 -569.116)"/><path class="m" d="M1694.4,680.166a156.026,156.026,0,0,1-24.246,2.488,134.305,134.305,0,0,1-18.635-.847c-1.456-.159-2.885-.344-4.235-.556-14.293-2.17-22.181-6.009-22.181-6.009s13.049-27.316,23.584-26.258c12.361,1.244,33.325,12.335,35.416,9.211,2.356-3.494,4.315-33.59,4.315-33.59,5.479-3.759,8.761.212,8.761.212S1707.87,677.731,1694.4,680.166Z" transform="translate(-1544.666 -593.902)"/><path class="l" d="M1758.738,797.266a156.02,156.02,0,0,1-24.246,2.488,134.243,134.243,0,0,1-18.634-.847c-3.282-10.455-5.665-21.149.953-14.717C1728.484,795.572,1758.738,797.266,1758.738,797.266Z" transform="translate(-1609.008 -711.002)"/><path class="w" d="M1620.882,1660.517s-.927,10.853,1.35,11.991l29.381-.053s0-3.388-4.712-4.156c-4.712-.741-13-3.521-14.4-9.661C1631.073,1652.471,1620.882,1660.517,1620.882,1660.517Z" transform="translate(-1541.428 -1353.71)"/><path class="z" d="M1599.222,1081.286c-.132,7.094-.477,14.426-1.165,21.017-3.176,31.234-4.288,68.979-4.738,76.258-.794,12.626-3.282,32.8-3.282,32.8s-4.95,4.685-14.585,2.462c0,0-7.994-29.063-9.767-59.662q-.04-.754-.08-1.509c-.212-4.05-.423-8.682-.635-13.658-1.482-33.4-3.07-83.034-3.07-83.034l36.872-8.655C1598.719,1047.247,1599.566,1063.578,1599.222,1081.286Z" transform="translate(-1498.195 -905.9)"/><path class="w" d="M1599.148,1081.213c-9.344,16.12-27.158,45.818-34.278,57.677-1.482-33.4-3.071-83.034-3.071-83.034l36.872-8.656C1598.645,1047.174,1599.492,1063.505,1599.148,1081.213Z" transform="translate(-1498.121 -905.826)"/><path class="f" d="M1328.894,1057.7s-6.009,7.067-6.538,9-1.509,9-.979,11.117c.5,2.118,4.5-5.9,5.956-6.75s-1.085,3.2-.582,3.865c.5.688,3.362-2.356,4.473-3.388s1.006-6.564,2.356-9.82C1334.9,1058.441,1328.894,1057.7,1328.894,1057.7Z" transform="translate(-1321.225 -913.547)"/><path class="w" d="M1332.835,1619.35s-5.241,4.764-4.209,8.152,5.744,5.638,6.379,9.794,3.176,6.406,5.479,6.406h10.932s1.694-2.912-2.382-3.785-5.612-5.744-5.373-10.27a78.5,78.5,0,0,0-.37-10.535l-8.682-2.012Z" transform="translate(-1326.568 -1324.877)"/><path class="z" d="M1433.361,1051.449s-34.516,73.823-52.859,106.221c-18.37,32.4-24.113,41.425-24.113,41.425s-10.509-4.156-11.488-6.962c0,0,7.014-62.547,19.323-77.793,6.961-8.6,15.114-34.463,15.485-43.516s8.444-30.625,8.444-30.625Z" transform="translate(-1338.634 -900.679)"/><path class="m" d="M1546.1,798.361a59.59,59.59,0,0,1-33.14,8.311c-8.523-.37-25.437-2.779-28.163-9.555-.635-1.588-.159-3.6.794-6.723,2.488-8.047,8.311-23.4,6.564-57.412a54.523,54.523,0,0,1,.238-8.92c1.826-16.755,11.435-26.681,20.726-29.937,22.631-7.914,30.175,3.044,30.175,3.044s10.005,7.914,11.514,24.484C1557.8,754.739,1546.1,798.361,1546.1,798.361Z" transform="translate(-1441.288 -644.096)"/><path class="f" d="M1617.5,636.59s10.376,6.326,21.652,4.526c0,0,2.224-.556,1.138-3.176a34.465,34.465,0,0,0,1.006-3.494,56.517,56.517,0,0,0,1.3-5.691l-6.406-6.723-6.061-6.432C1628.458,630.979,1617.5,636.59,1617.5,636.59Z" transform="translate(-1539.078 -588.468)"/><path class="ab" d="M1661.6,637.7s3.468,9.291,12.123,13.023c.979-3.6,1.641-7.385,1.641-7.385l-6.723-5.029Z" transform="translate(-1571.505 -604.718)"/><path class="f" d="M1676.086,574.065s-19.825,2.488-21.228-9.714c-1.4-12.176-4.9-20.064,7.7-22.155s15.59,2.276,17.073,6.247C1681.115,552.387,1681.221,573.112,1676.086,574.065Z" transform="translate(-1565.424 -534.095)"/><path class="ac" d="M1631.382,519.211c-.159-.212-.582-.4-1.482-.477a3.807,3.807,0,0,1,1.72-.423c.238-1.271,1.006-3.494,3.229-3.97a2.693,2.693,0,0,0-1.4,1.932c2.647-2.515,8.179-4.209,23.214-2.462,19.852,2.329,12.811,14.823,10.164,16.252s-8.973-2.991-13.764-2.779c-4.817.212-5.982,7.094-7.65,7.994s-.953-.768-3.123-1.853-2.515,2.567-1.959,4.95c.556,2.409-2.594,5.426-2.594,5.426l-2.938-3.415c-2.938-3.415-5.294-17.47-3.785-20.408C1631.118,519.741,1631.25,519.476,1631.382,519.211Z" transform="translate(-1548.196 -513.096)"/><g transform="translate(108.173 9.819)"><path class="z" d="M1770.181,589.258l-33.669.291-.212-5.056,33.537-2.594Z" transform="translate(-1734.605 -573.507)"/><path class="z" d="M1857.357,580.914l-36.66.529-.4-9.211,36.528-2.832Z" transform="translate(-1796.371 -564.315)"/><path class="w" d="M1966.245,573.393l-30.89.026-.556-12.414,30.757-2.806Z" transform="translate(-1880.564 -556.08)"/><path class="w" d="M2048.308,569.595h0a1.718,1.718,0,0,0,1.641-1.8l-.715-15.961a1.718,1.718,0,0,0-1.8-1.641h0a1.718,1.718,0,0,0-1.641,1.8l.715,15.961A1.718,1.718,0,0,0,2048.308,569.595Z" transform="translate(-1962.176 -550.19)"/><path class="z" d="M1731.7,594.824h0a1.556,1.556,0,0,1-1.615-1.456l-.185-4.156a1.556,1.556,0,0,1,1.456-1.615h0a1.556,1.556,0,0,1,1.615,1.456l.185,4.156A1.538,1.538,0,0,1,1731.7,594.824Z" transform="translate(-1729.897 -577.696)"/></g><path class="l" d="M1488.6,881.433c2.488-8.047,8.311-23.4,6.564-57.412a54.566,54.566,0,0,1,.238-8.92h0c7.438-.635,18.846,7.411,18.846,7.411S1507.208,865.26,1488.6,881.433Z" transform="translate(-1444.297 -735.136)"/><path class="m" d="M1414.261,694.9s-19.111,3.282-29.063,15.458-25.993,29.3-29.778,35.31-14.32,46.877-14.32,46.877.688,1.324,3.6,2.091a6.794,6.794,0,0,0,4.791-.4s13.95-23.849,19.19-35.76c2.171-4.95,39.863-24.564,54.05-22.526C1428.29,736.722,1414.261,694.9,1414.261,694.9Z" transform="translate(-1335.839 -646.778)"/><path class="f" d="M1863.5,572.653s4.1,2.515,6.565,1.456,2.25-2.038,2.25-2.038S1864.9,570.006,1863.5,572.653Z" transform="translate(-1719.964 -555.896)"/><path class="u" d="M1480.952,742.626s-8.391,52.939-67.867,68.344l-6.485,12.785,11.382,1.932s67.708-19.614,66.808-83.987Z" transform="translate(-1384.002 -681.19)"/><path class="t" d="M1675.026,713.3l-2.726.265v4l4.023,4.182,3.865-.926v-5.506l-2.779-2.012Z" transform="translate(-1579.373 -660.307)"/><path class="l" d="M1617.635,673.6s-2.647.609-8.735,5.638c0,0,6.035,12.838,18.793,14.373,0,0-.212-5.956.715-9.476C1628.408,684.108,1618.323,680.509,1617.635,673.6Z" transform="translate(-1532.755 -631.116)"/><path class="l" d="M1682.6,703.447s6.22,3.309,6.67,8.444c0,0,2.382-3.759,1.694-6.379a21.074,21.074,0,0,0-2.833-5.612S1688.37,703.076,1682.6,703.447Z" transform="translate(-1586.947 -650.454)"/></g></g></g></svg>