<svg xmlns="http://www.w3.org/2000/svg" width="27.159" height="25.515" viewBox="0 0 27.159 25.515"><defs><style>.a{fill:#3de9f2;}.b{fill:#00cef2;}.c{fill:#70ffff;}.d{fill:#fddbcc;}.e{fill:#fbcdbe;}.f{fill:#00347b;}.g{fill:#002860;}</style></defs><g transform="translate(0 -15.5)"><path class="a" d="M21.574,15.5H5.585a5.585,5.585,0,0,0,0,11.17h15.99a5.585,5.585,0,0,0,0-11.17Z" transform="translate(0)"/><path class="b" d="M234.968,21.085a5.592,5.592,0,0,1-5.585,5.585H219.45V15.5h9.933A5.591,5.591,0,0,1,234.968,21.085Z" transform="translate(-207.809)"/><path class="c" d="M49.983,53.487H33.994a3.994,3.994,0,1,1,0-7.987H49.983a3.994,3.994,0,0,1,0,7.987Z" transform="translate(-28.409 -28.409)"/><path class="a" d="M233.377,49.494a4,4,0,0,1-3.994,3.994H219.45V45.5h9.933A4,4,0,0,1,233.377,49.494Z" transform="translate(-207.809 -28.409)"/><path class="d" d="M113.559,117.47v6.11l-.233.265H102.783l-.363-.266-3.749-3.145a1.978,1.978,0,1,1,2.543-3.03l1.206,1.012v-9.927a1.989,1.989,0,1,1,3.978,0v6.051l5.037.557a2.385,2.385,0,0,1,2.124,2.373Z" transform="translate(-92.768 -86.173)"/><path class="e" d="M228.6,117.47v6.11l-.233.265H219.45V106.5a1.991,1.991,0,0,1,1.989,1.989v6.051l5.037.558A2.385,2.385,0,0,1,228.6,117.47Z" transform="translate(-207.809 -86.173)"/><path class="f" d="M193.09,428.5v2.811a.8.8,0,0,1-.8.8h-9.548a.8.8,0,0,1-.8-.8V428.5Z" transform="translate(-172.298 -391.092)"/><path class="g" d="M228.6,428.5v2.811a.8.8,0,0,1-.8.8H219.45V428.5Z" transform="translate(-207.809 -391.092)"/><path class="b" d="M307.032,75.734a.8.8,0,0,0-1.125,0l-2.62,2.62-1.029-1.029a.8.8,0,1,0-1.125,1.125l1.591,1.591a.8.8,0,0,0,1.125,0l3.183-3.183A.8.8,0,0,0,307.032,75.734Z" transform="translate(-284.938 -56.818)"/></g></svg>