<svg xmlns="http://www.w3.org/2000/svg" width="59.424" height="59.424" viewBox="0 0 59.424 59.424"><defs><style>.a{fill:#ded8d0;}.b{fill:#c9c4bd;}.c{fill:#f5a947;}.d{fill:#f09d3a;}.e{fill:#e34e4b;}.f{fill:#50b6cf;}.g{fill:#223b5a;}</style></defs><g transform="translate(-2 -2)"><path class="a" d="M49.539,7A3.96,3.96,0,0,1,53.5,10.962V51.568a3.96,3.96,0,0,1-3.962,3.962H5.962A3.96,3.96,0,0,1,2,51.568V10.962A3.96,3.96,0,0,1,5.962,7Z" transform="translate(0 -0.048)"/><path class="b" d="M5.962,55.754H49.539A3.961,3.961,0,0,0,53.5,51.792V30.358C44.128,40.612,28.271,48.156,2,49.565v2.228a3.961,3.961,0,0,0,3.962,3.962Z" transform="translate(0 -0.272)"/><circle class="c" cx="10.5" cy="10.5" r="10.5" transform="translate(39.712 39.712)"/><path class="d" d="M57.444,42.209A10.88,10.88,0,0,1,42.209,57.444,10.884,10.884,0,1,0,57.444,42.209Z" transform="translate(-0.386 -0.386)"/><path class="e" d="M53.5,16.9H2V10.962A3.962,3.962,0,0,1,5.962,7H49.539A3.962,3.962,0,0,1,53.5,10.962Z" transform="translate(0 -0.048)"/><path class="c" d="M10.981,11.9A1.981,1.981,0,0,1,9,9.923V3.981a1.981,1.981,0,1,1,3.962,0V9.923A1.981,1.981,0,0,1,10.981,11.9Z" transform="translate(-0.067 0)"/><path class="c" d="M21.981,11.9A1.981,1.981,0,0,1,20,9.923V3.981a1.981,1.981,0,1,1,3.962,0V9.923A1.981,1.981,0,0,1,21.981,11.9Z" transform="translate(-0.173 0)"/><path class="c" d="M33.981,11.9A1.981,1.981,0,0,1,32,9.923V3.981a1.981,1.981,0,0,1,3.962,0V9.923A1.981,1.981,0,0,1,33.981,11.9Z" transform="translate(-0.288 0)"/><path class="c" d="M44.981,11.9A1.981,1.981,0,0,1,43,9.923V3.981a1.981,1.981,0,0,1,3.962,0V9.923A1.981,1.981,0,0,1,44.981,11.9Z" transform="translate(-0.394 0)"/><g transform="translate(7.942 21.808)"><path class="f" d="M8,22h5.942v5.942H8Z" transform="translate(-8 -22)"/><path class="f" d="M19,22h5.942v5.942H19Z" transform="translate(-8.106 -22)"/><path class="f" d="M30,22h5.942v5.942H30Z" transform="translate(-8.211 -22)"/><path class="f" d="M41,22h5.942v5.942H41Z" transform="translate(-8.317 -22)"/><path class="f" d="M8,33h5.942v5.942H8Z" transform="translate(-8 -22.106)"/><path class="f" d="M19,33h5.942v5.942H19Z" transform="translate(-8.106 -22.106)"/><path class="f" d="M30,33h5.942v5.942H30Z" transform="translate(-8.211 -22.106)"/><path class="f" d="M41,33h5.942v5.942H41Z" transform="translate(-8.317 -22.106)"/><path class="f" d="M8,44h5.942v5.942H8Z" transform="translate(-8 -22.211)"/><path class="f" d="M19,44h5.942v5.942H19Z" transform="translate(-8.106 -22.211)"/><path class="f" d="M30,44h5.942v5.942H30Z" transform="translate(-8.211 -22.211)"/></g><path class="g" d="M46.613,55.659l-1.238-1.547,4.581-3.664V43h1.981v8.4Z" transform="translate(-0.417 -0.394)"/><circle class="g" cx="2.5" cy="2.5" r="2.5" transform="translate(47.712 47.712)"/></g></svg>