<svg xmlns="http://www.w3.org/2000/svg" width="58.175" height="60.806" viewBox="0 0 58.175 60.806"><defs><style>.a{fill:#838383;}.b{fill:#5a5a5a;}.c{fill:#9c9c9c;}.d{fill:#d8ecfe;}.e{fill:#b3dafe;}.f{fill:#0071b7;}.g{fill:#04588d;}.h{fill:#fff;}.i{fill:#f8f6f6;}.j{fill:#c17d4f;}.k{fill:#b16e3d;}.l{fill:#dce5ec;}.m{fill:#8ac9fe;}.n{fill:#eaad9c;}.o{fill:#f1ccbd;}.p{fill:#d88a55;}.q{fill:#f5aa4b;}.r{fill:#e5a049;}</style></defs><g transform="translate(-15.174)"><path class="a" d="M219,341.4h10.709v6.743H219Z" transform="translate(-178.067 -291.998)"/><path class="b" d="M219,341.4h4.341v6.743H219Z" transform="translate(-178.067 -291.998)"/><g transform="translate(33.553 56.005)"><path class="c" d="M193.47,391.8v-3.354A1.447,1.447,0,0,0,192.023,387H169.447A1.447,1.447,0,0,0,168,388.447V391.8Z" transform="translate(-168 -387)"/></g><path class="a" d="M176.683,387h-7.236A1.447,1.447,0,0,0,168,388.447V391.8h7.236v-3.354A1.447,1.447,0,0,1,176.683,387Z" transform="translate(-134.447 -330.995)"/><g transform="translate(15.174 0)"><path class="c" d="M121.676,102.4H70.447A1.447,1.447,0,0,0,69,103.851v20.536a9.209,9.209,0,0,1,12.9,12.749h39.78a1.447,1.447,0,0,0,1.447-1.447V103.851A1.447,1.447,0,0,0,121.676,102.4Z" transform="translate(-64.948 -87.585)"/><path class="d" d="M133.058,117.4H84.724a.724.724,0,0,0-.724.724v17.95a9.216,9.216,0,0,1,12.354,8.665c0,.053,0,.1,0,.157h6.189l.145-.145V128.264a3.232,3.232,0,0,1,3.228-3.228H127.5a3.232,3.232,0,0,1,3.228,3.228v16.491l.145.145h2.186a.724.724,0,0,0,.724-.724V118.128A.724.724,0,0,0,133.058,117.4Z" transform="translate(-77.777 -100.414)"/><path class="e" d="M87.138,217.386a9.43,9.43,0,0,1,1.2.08v-4.182H84v4.643A9.344,9.344,0,0,1,87.138,217.386Z" transform="translate(-77.777 -182.418)"/><g transform="translate(0 10.648)"><path class="f" d="M65.907,90.783a3.232,3.232,0,0,1,3.228-3.228h3.2V85.277a1.47,1.47,0,0,1,1.337-1.47l.24-.023-.133-.2a5.591,5.591,0,0,1-.88-2.383l-.016-.127H71.663a2.131,2.131,0,0,1-2.128-2.128V77.281a2.118,2.118,0,0,1,.587-1.464l.04-.042V73.581H42.589A1.589,1.589,0,0,0,41,75.17V92.209A1.589,1.589,0,0,0,42.589,93.8h14.8a1.448,1.448,0,0,1,1.067.47l4.122,4.5a.477.477,0,0,0,.828-.322V94.522a.724.724,0,0,1,.724-.724h1.776Z" transform="translate(-41 -73.581)"/></g><g transform="translate(0 10.648)"><path class="g" d="M46.789,92.209V75.17a1.589,1.589,0,0,1,1.589-1.589H42.589A1.589,1.589,0,0,0,41,75.17V92.209A1.589,1.589,0,0,0,42.589,93.8h5.789A1.589,1.589,0,0,1,46.789,92.209Z" transform="translate(-41 -73.581)"/></g><g transform="translate(24.762)"><g transform="translate(0 24.477)"><path class="h" d="M221.471,169.7a.418.418,0,0,1,.413-.417l0-.145H215.48a3.373,3.373,0,0,0-3.373,3.373v16.636h9.219l.145-.058V169.7Z" transform="translate(-212.107 -169.138)"/><path class="h" d="M346.709,169.139H340.3l0,.145a.418.418,0,0,1,.413.417v19.388l.145.058h9.219V172.512A3.373,3.373,0,0,0,346.709,169.139Z" transform="translate(-321.749 -169.139)"/></g><path class="i" d="M218.5,169.139h-3.023a3.373,3.373,0,0,0-3.373,3.373v16.636h3.023V172.512A3.373,3.373,0,0,1,218.5,169.139Z" transform="translate(-212.108 -144.662)"/><path class="j" d="M243.159,12.22h1.186v-.81a1.034,1.034,0,0,1,1.033-1.033h3.747a5.244,5.244,0,0,0,4.718-2.922,1.019,1.019,0,0,1,.912-.549h.817A2.934,2.934,0,0,1,258.5,9.838v2.383h1.186a2.124,2.124,0,0,1,1.646.781V8.833A8.833,8.833,0,0,0,252.5,0h-2.156a8.833,8.833,0,0,0-8.833,8.833V13A2.125,2.125,0,0,1,243.159,12.22Z" transform="translate(-237.258 0)"/><path class="k" d="M243.159,12.22h1.186v-.81a1.034,1.034,0,0,1,1.033-1.033h2.142V8.833a8.835,8.835,0,0,1,6.907-8.62A8.857,8.857,0,0,0,252.5,0h-2.156a8.833,8.833,0,0,0-8.833,8.833V13A2.125,2.125,0,0,1,243.159,12.22Z" transform="translate(-237.258 0)"/><path class="l" d="M260.658,155.4l-4.351-7.658a5.574,5.574,0,0,1-4.086,1.781h-2.978a5.575,5.575,0,0,1-4.086-1.781l-4.351,7.658a.577.577,0,0,0,.159.812l3.008,1.962-2.792,1.86a.562.562,0,0,0-.171.756l4.918,8.23V151.4a.418.418,0,0,1,.417-.418h8.77a.418.418,0,0,1,.418.418V169.02l4.918-8.23a.562.562,0,0,0-.171-.756l-2.792-1.86,3.008-1.962A.578.578,0,0,0,260.658,155.4Z" transform="translate(-236.566 -126.362)"/><g transform="translate(9.219 24.477)"><path class="m" d="M285.147,169.139h-8.77a.562.562,0,0,0-.562.562v19.447h9.894V169.7a.562.562,0,0,0-.562-.562Z" transform="translate(-275.815 -169.139)"/></g><path class="f" d="M303.5,242.006h1.881v9.464H303.5Z" transform="translate(-290.274 -206.984)"/><path class="f" d="M270.363,143.192h-.017a5.628,5.628,0,0,1-2.182,1.881h1.94V151.3a4.464,4.464,0,0,1-4.459,4.459h-2.8a4.464,4.464,0,0,1-4.459-4.459v-6.223h1.94a5.628,5.628,0,0,1-2.182-1.881h-.017a1.624,1.624,0,0,0-1.622,1.622V151.3a6.348,6.348,0,0,0,6.34,6.34h2.8a6.348,6.348,0,0,0,6.34-6.34v-6.482A1.624,1.624,0,0,0,270.363,143.192Z" transform="translate(-250.077 -122.47)"/><g transform="translate(3.629 6.762)"><g transform="translate(0 5.314)"><path class="n" d="M240.642,88.941v-5.5h-1.186a2.273,2.273,0,0,0-2.273,2.273v1.663a2.273,2.273,0,0,0,2.273,2.273h1.233A5.63,5.63,0,0,1,240.642,88.941Z" transform="translate(-237.183 -83.446)"/><path class="n" d="M359.823,83.446h-1.186v5.5a5.613,5.613,0,0,1-.047.713h1.233a2.273,2.273,0,0,0,2.273-2.273V85.719A2.273,2.273,0,0,0,359.823,83.446Z" transform="translate(-341.021 -83.446)"/></g><path class="o" d="M289.7,159.866v-1.175a5.576,5.576,0,0,1-1.465.2h-2.978a5.577,5.577,0,0,1-1.465-.2v1.175a.337.337,0,0,1-.337.337h-.644l3.648,5.883a.337.337,0,0,0,.573,0l3.648-5.883h-.644A.337.337,0,0,1,289.7,159.866Z" transform="translate(-276.205 -142.488)"/><path class="n" d="M286.463,160.2a.337.337,0,0,0,.337-.337v-.978h-1.546a5.577,5.577,0,0,1-1.465-.2v1.175a.337.337,0,0,1-.337.337h-.644l3.648,5.883a.337.337,0,0,0,.573,0l1.219-1.966-2.429-3.918h.644Z" transform="translate(-276.205 -142.488)"/><g transform="translate(3.314)"><path class="o" d="M271.456,46.726h-.817a1.159,1.159,0,0,0-1.041.629A5.124,5.124,0,0,1,265.01,50.2h-3.747a1.178,1.178,0,0,0-1.178,1.178v6.161a5.735,5.735,0,0,0,5.735,5.735H268.8a5.735,5.735,0,0,0,5.735-5.735V49.8A3.075,3.075,0,0,0,271.456,46.726Z" transform="translate(-260.085 -46.726)"/></g><g transform="translate(3.314 3.471)"><path class="n" d="M263.112,78.048V71.887a1.178,1.178,0,0,1,1.178-1.178h-3.027a1.178,1.178,0,0,0-1.178,1.178v6.161a5.735,5.735,0,0,0,5.735,5.735h3A5.734,5.734,0,0,1,263.112,78.048Z" transform="translate(-260.085 -70.709)"/></g><g transform="translate(5.775 4.874)"><path class="p" d="M278.174,83.721a1.085,1.085,0,0,1-1.085-1.085V81.488a1.085,1.085,0,1,1,2.171,0v1.147A1.085,1.085,0,0,1,278.174,83.721Z" transform="translate(-277.089 -80.403)"/><g transform="translate(7.253)"><path class="p" d="M328.3,83.721a1.085,1.085,0,0,1-1.085-1.085V81.488a1.085,1.085,0,1,1,2.171,0v1.147A1.085,1.085,0,0,1,328.3,83.721Z" transform="translate(-327.211 -80.403)"/></g><g transform="translate(1.541 6.536)"><path class="p" d="M291.156,128.7a4.352,4.352,0,0,1-3.1-1.284,1.085,1.085,0,1,1,1.535-1.535,2.208,2.208,0,0,0,3.126,0,1.085,1.085,0,1,1,1.535,1.535,4.351,4.351,0,0,1-3.1,1.284Z" transform="translate(-287.74 -125.565)"/></g><g transform="translate(3.307 1.48)"><path class="p" d="M302.139,94.894h-.74a1.457,1.457,0,0,1-1.455-1.455V91.712a1.085,1.085,0,1,1,2.171,0v1.011h.024a1.085,1.085,0,0,1,0,2.171Z" transform="translate(-299.944 -90.627)"/></g></g></g></g><g transform="translate(0 34.968)"><circle class="q" cx="9.361" cy="9.361" r="9.361"/><path class="r" d="M45.578,250.993a9.364,9.364,0,0,1,7.072-9.078,9.361,9.361,0,1,0,0,18.155,9.364,9.364,0,0,1-7.072-9.078Z" transform="translate(-41 -241.632)"/><g transform="translate(4.732 4.732)"><path class="h" d="M82.671,277.268H80.306a.285.285,0,0,1-.285-.285v-2.365a.285.285,0,0,0-.285-.285H76.919a.285.285,0,0,0-.285.285v2.365a.285.285,0,0,1-.285.285H73.984a.285.285,0,0,0-.285.285v2.816a.285.285,0,0,0,.285.285h2.365a.285.285,0,0,1,.285.285V283.3a.285.285,0,0,0,.285.285h2.816a.285.285,0,0,0,.285-.285V280.94a.285.285,0,0,1,.285-.285h2.365a.285.285,0,0,0,.285-.285v-2.816A.286.286,0,0,0,82.671,277.268Z" transform="translate(-73.699 -274.333)"/></g><g transform="translate(4.732 7.667)"><path class="i" d="M78.41,299.446a.285.285,0,0,1-.285-.285V296.8a.285.285,0,0,0-.285-.285H75.475a.285.285,0,0,1-.285-.285v-1.611H73.984a.285.285,0,0,0-.285.285v2.816a.285.285,0,0,0,.285.285h2.365a.285.285,0,0,1,.285.285v2.365a.285.285,0,0,0,.285.285h2.816a.285.285,0,0,0,.285-.285v-1.206Z" transform="translate(-73.699 -294.615)"/></g></g><g transform="translate(4.848 15.39)"><path class="h" d="M85.137,108.516H75.585a1.085,1.085,0,1,1,0-2.171h9.551a1.085,1.085,0,1,1,0,2.171Z" transform="translate(-74.5 -106.345)"/><g transform="translate(0 4.31)"><path class="h" d="M90.925,138.3H75.585a1.085,1.085,0,1,1,0-2.171h15.34a1.085,1.085,0,1,1,0,2.171Z" transform="translate(-74.5 -136.125)"/></g><g transform="translate(0 8.619)"><path class="h" d="M90.925,168.075H75.585a1.085,1.085,0,1,1,0-2.171h15.34a1.085,1.085,0,1,1,0,2.171Z" transform="translate(-74.5 -165.904)"/></g></g></g></g></svg>