<svg xmlns="http://www.w3.org/2000/svg" width="21.151" height="22.359" viewBox="0 0 21.151 22.359"><defs><style>.a{fill:#0071b7;}</style></defs><g transform="translate(-13.838)"><g transform="translate(15.957 4.302)"><path class="a" d="M77.462,98.512l-1.426,16.244H65.585L64.16,98.512l-1.806.158,1.451,16.539a1.526,1.526,0,0,0,1.506,1.36h11a1.529,1.529,0,0,0,1.507-1.371l1.45-16.528Z" transform="translate(-62.354 -98.512)"/></g><g transform="translate(19.579)"><path class="a" d="M153.455,0h-6.647A1.512,1.512,0,0,0,145.3,1.511v2.87h1.813V1.813h6.043V4.381h1.813V1.511A1.512,1.512,0,0,0,153.455,0Z" transform="translate(-145.297)"/></g><g transform="translate(13.838 3.475)"><path class="a" d="M34.082,79.568H14.744a.906.906,0,1,0,0,1.813H34.082a.906.906,0,1,0,0-1.813Z" transform="translate(-13.838 -79.568)"/></g></g></svg>