<svg xmlns="http://www.w3.org/2000/svg" xmlns:xlink="http://www.w3.org/1999/xlink" width="63.392" height="63.397" viewBox="0 0 63.392 63.397"><defs><style>.a{fill:#fcf2d0;}.b{fill:#fae0bd;}.c{fill:#ffd3bd;}.d{fill:#ffbe9d;}.e{fill:#0071b7;}.f{fill:#eda1ab;}.g{fill:#e8899e;}.h{fill:#4e5660;}.i{fill:#f5aa4b;}.j{fill:#fff;}.k{filter:url(#e);}.l{filter:url(#c);}.m{filter:url(#a);}</style><filter id="a" x="0" y="12.649" width="57.789" height="44.348" filterUnits="userSpaceOnUse"><feOffset dy="3" input="SourceAlpha"/><feGaussianBlur stdDeviation="3" result="b"/><feFlood flood-opacity="0.161"/><feComposite operator="in" in2="b"/><feComposite in="SourceGraphic"/></filter><filter id="c" x="8.385" y="0" width="36.06" height="49.534" filterUnits="userSpaceOnUse"><feOffset dy="3" input="SourceAlpha"/><feGaussianBlur stdDeviation="3" result="d"/><feFlood flood-opacity="0.161"/><feComposite operator="in" in2="d"/><feComposite in="SourceGraphic"/></filter><filter id="e" x="19.674" y="19.679" width="43.718" height="43.718" filterUnits="userSpaceOnUse"><feOffset dy="3" input="SourceAlpha"/><feGaussianBlur stdDeviation="3" result="f"/><feFlood flood-opacity="0.161"/><feComposite operator="in" in2="f"/><feComposite in="SourceGraphic"/></filter></defs><g transform="translate(9 6.001)"><g class="m" transform="matrix(1, 0, 0, 1, -9, -6)"><path class="a" d="M33.391,181.918H6.4a6.4,6.4,0,0,1-6.4-6.4V157.9a2.329,2.329,0,0,1,2.329-2.329H37.46a2.329,2.329,0,0,1,2.329,2.329v17.619a6.4,6.4,0,0,1-6.4,6.4Z" transform="translate(9 -136.92)"/></g><path class="b" d="M2.329,155.571A2.329,2.329,0,0,0,0,157.9V175.52a6.4,6.4,0,0,0,6.4,6.4h7.25C8.686,178.206,5.952,168.4,7.3,155.568Z" transform="translate(0 -142.923)"/><path class="c" d="M39.794,159.769H0V157.9a2.329,2.329,0,0,1,2.329-2.329H37.46a2.329,2.329,0,0,1,2.329,2.329v1.87Z" transform="translate(0 -142.921)"/><path class="d" d="M0,157.9v1.87H7q.077-2.038.3-4.2H2.331A2.329,2.329,0,0,0,0,157.9Z" transform="translate(0 -142.921)"/><path class="e" d="M29.3,254.792a9.717,9.717,0,0,1-9.407,9.981c-2.38-.075-6.407-2.688-6.407-2.688s-3.081-4.324-3-7.293c0-2.695-7.314-2.727-10.487-1.568v9.746a6.4,6.4,0,0,0,6.4,6.389h27a6.4,6.4,0,0,0,6.4-6.4V251.6C35.45,249.462,29.3,251.668,29.3,254.792Z" transform="translate(0 -230.369)"/><path class="e" d="M7.064,272.3A16.8,16.8,0,0,0,0,272.887v9.746a6.4,6.4,0,0,0,6.4,6.4h7.25C10.017,286.314,7.58,280.336,7.064,272.3Z" transform="translate(0 -250.032)"/><g transform="translate(3.601 26.549)"><path class="f" d="M44.875,329.264a.611.611,0,0,1-.431-1.041l.8-.8a.611.611,0,1,1,.858.858l-.8.8a.607.607,0,0,1-.427.184Z" transform="translate(-44.266 -327.192)"/><path class="f" d="M74.636,394.387a.609.609,0,0,1-.43-.172l-.515-.515a.611.611,0,0,1,.858-.858l.515.523a.611.611,0,0,1-.431,1.041Z" transform="translate(-71.125 -387.264)"/><path class="g" d="M139.1,426.364a.609.609,0,0,1-.431-1.041l.871-.871a.611.611,0,0,1,.858.858l-.871.871a.609.609,0,0,1-.431.172Z" transform="translate(-130.83 -416.324)"/></g><g class="l" transform="matrix(1, 0, 0, 1, -9, -6)"><path class="h" d="M118.918,19.054a3.832,3.832,0,0,1-1.048-1.762A31.755,31.755,0,0,0,105.774.265a1.731,1.731,0,0,0-2.221.324,1.758,1.758,0,0,0,.072,2.359,26.4,26.4,0,0,1,6.818,14.7,2.679,2.679,0,0,1-.619,1.981,7.436,7.436,0,0,0-1.715,4.8,6.554,6.554,0,1,0,13.062,0,7.362,7.362,0,0,0-2.252-5.376Z" transform="translate(-85.75 6)"/></g><g class="k" transform="matrix(1, 0, 0, 1, -9, -6)"><circle class="i" cx="9.093" cy="9.093" r="9.093" transform="translate(28.67 38.54) rotate(-45)"/></g><path class="j" d="M341.1,337.03v-2.638a.477.477,0,0,0-.477-.477h-2.638a.477.477,0,0,0-.477.477v2.638a.477.477,0,0,1-.477.477h-2.638a.477.477,0,0,0-.477.477v2.638a.477.477,0,0,0,.477.477h2.638a.477.477,0,0,1,.477.477v2.638a.477.477,0,0,0,.477.477h2.638a.477.477,0,0,0,.477-.477v-2.64a.477.477,0,0,1,.477-.477h2.638a.477.477,0,0,0,.477-.477v-2.638a.477.477,0,0,0-.477-.477h-2.635a.477.477,0,0,1-.48-.475Z" transform="translate(-306.766 -306.765)"/></g></svg>