<svg xmlns="http://www.w3.org/2000/svg" width="60.336" height="60.336" viewBox="0 0 60.336 60.336"><defs><style>.a{fill:#c7c2c9;}.b{fill:#655e67;}.c{fill:#544f56;}.d{fill:#ecf5ff;}.e{fill:#dceafc;}.f{fill:#b3e59f;}.g{fill:#95d6a4;}.h{fill:#f1ccbd;}.i{fill:#eaad9c;}.j{fill:#c17d4f;}.k{fill:#b16e3d;}.l{fill:#dfdce0;}.m{fill:#f1eff1;}</style></defs><path class="a" d="M225.89,418.064h7.1v9.249h-7.1Z" transform="translate(-199.27 -368.798)"/><path class="b" d="M56.694,147.585H3.642A3.642,3.642,0,0,1,0,143.943V113.031a3.642,3.642,0,0,1,3.642-3.642H56.694a3.642,3.642,0,0,1,3.642,3.642v30.913A3.642,3.642,0,0,1,56.694,147.585Z" transform="translate(0 -96.498)"/><path class="c" d="M453.832,109.388H450.19a3.642,3.642,0,0,1,3.642,3.642v30.913a3.642,3.642,0,0,1-3.642,3.642h3.642a3.642,3.642,0,0,0,3.642-3.642V113.03A3.642,3.642,0,0,0,453.832,109.388Z" transform="translate(-397.138 -96.497)"/><path class="d" d="M30.905,170.841V140.657a.364.364,0,0,1,.364-.364H83.593a.364.364,0,0,1,.364.364v30.184a.364.364,0,0,1-.364.364H31.269A.364.364,0,0,1,30.905,170.841Z" transform="translate(-27.263 -123.76)"/><path class="e" d="M450.741,140.294H447.1a.364.364,0,0,1,.364.364v30.184a.364.364,0,0,1-.364.364h3.642a.364.364,0,0,0,.364-.364V140.658A.364.364,0,0,0,450.741,140.294Z" transform="translate(-394.411 -123.761)"/><path class="b" d="M195.084,481.1H183.866a3.278,3.278,0,0,0-3.278,3.278.364.364,0,0,0,.364.364H198a.364.364,0,0,0,.364-.364A3.278,3.278,0,0,0,195.084,481.1Z" transform="translate(-159.307 -424.401)"/><path class="c" d="M276.334,481.1h-3.642a3.278,3.278,0,0,1,3.278,3.278.364.364,0,0,1-.364.364h3.642a.364.364,0,0,0,.364-.364A3.278,3.278,0,0,0,276.334,481.1Z" transform="translate(-240.557 -424.401)"/><g transform="translate(11.36)"><path class="f" d="M134.016,224.737V214.89a6.067,6.067,0,0,0-4.136-5.75l-8.789-2.954a2.022,2.022,0,0,1-1.379-1.917v-3.293H110.7v3.293a2.022,2.022,0,0,1-1.379,1.917l-8.789,2.954a6.067,6.067,0,0,0-4.136,5.75v9.848Z" transform="translate(-96.401 -177.292)"/><g transform="translate(14.304 23.684)"><path class="g" d="M236.955,209.14l-8.789-2.954a2.022,2.022,0,0,1-1.379-1.917v-3.293h-9.008V202.8h5.366v3.293a2.022,2.022,0,0,0,1.379,1.917l8.789,2.954a6.067,6.067,0,0,1,4.136,5.75v8.027h3.642V214.89A6.067,6.067,0,0,0,236.955,209.14Z" transform="translate(-217.779 -200.976)"/></g><path class="h" d="M205.5,206.209l5.537,5.532a.728.728,0,0,0,1.03,0l5.486-5.481-.22-.074a2.022,2.022,0,0,1-1.379-1.917v-3.293h-9.008v3.293a2.022,2.022,0,0,1-1.379,1.917Z" transform="translate(-192.644 -177.292)"/><path class="i" d="M263.315,206.09a2.022,2.022,0,0,0,1.379,1.917l1.581.531,2.281-2.278-.22-.074a2.022,2.022,0,0,1-1.379-1.917v-3.293h-3.642v5.114Z" transform="translate(-243.645 -177.292)"/><g transform="translate(8.23)"><path class="j" d="M187.392,12.394H166.236v-7.8A4.593,4.593,0,0,1,170.829,0H182.8a4.593,4.593,0,0,1,4.593,4.593v7.8Z" transform="translate(-166.236 0)"/><path class="k" d="M279.528,0h-3.642a4.593,4.593,0,0,1,4.593,4.593v7.8h3.642v-7.8A4.593,4.593,0,0,0,279.528,0Z" transform="translate(-262.964)"/><g transform="translate(0 7.089)"><path class="h" d="M176.777,78.464a10.647,10.647,0,0,1-10.541-10.682v-3.7a23.337,23.337,0,0,0,8.782-1.67,23,23,0,0,0,4.121-2.167.552.552,0,0,1,.74.125,9.581,9.581,0,0,0,7.514,3.713V67.9a10.568,10.568,0,0,1-6.074,9.564,4.827,4.827,0,0,1-2.1-.021s-.972.945-1.569.991Q177.218,78.465,176.777,78.464Z" transform="translate(-166.236 -60.153)"/></g><g transform="translate(4.167 10.271)"><path class="i" d="M214.941,87.156V89.9a10.573,10.573,0,0,1-10.615,10.567,10.459,10.459,0,0,1-2.732-.372,10.442,10.442,0,0,0,6.374,2.193,10.573,10.573,0,0,0,10.615-10.567V87.9A9.7,9.7,0,0,1,214.941,87.156Z" transform="translate(-201.593 -87.156)"/></g></g><path class="l" d="M344.582,267.161a.914.914,0,0,0,1.208-.445,10.9,10.9,0,0,0,.637-7.395l-2.168-.729a9.1,9.1,0,0,1-.123,7.36.91.91,0,0,0,.445,1.208Z" transform="translate(-314.869 -228.119)"/><path class="a" d="M345.806,258.592a9.194,9.194,0,0,1,.713,3.292,6.058,6.058,0,0,1,1.793,1.084c.017-.212.028-.425.031-.637a10.978,10.978,0,0,0-.369-3.011Z" transform="translate(-316.415 -228.119)"/><path class="l" d="M150.713,263.515a.911.911,0,0,0,.858.607.924.924,0,0,0,.858-1.215,8.272,8.272,0,0,1-.468-2.371,8.449,8.449,0,0,1,.675-3.689l-2.167.729a10.01,10.01,0,0,0,.244,5.94Z" transform="translate(-143.799 -226.579)"/><g transform="translate(3.13 35.721)"><path class="m" d="M130.707,312.3h-.851a.91.91,0,1,1,0-1.821h.567v-2.713a2.821,2.821,0,1,0-5.642,0v2.713h.567a.91.91,0,1,1,0,1.821H124.5a1.539,1.539,0,0,1-1.537-1.537v-3a4.642,4.642,0,1,1,9.283,0v3a1.539,1.539,0,0,1-1.537,1.537Z" transform="translate(-122.961 -303.125)"/></g><ellipse class="m" cx="3.269" cy="3.265" rx="3.269" ry="3.265" transform="translate(27.038 37.456)"/></g></svg>