<svg id="Icons" height="512" viewBox="0 0 60 60" width="512" xmlns="http://www.w3.org/2000/svg"><path d="m47 7v12a2.009 2.009 0 0 0 -1.47.64l-7.42 8.01a2 2 0 0 0 1.46 3.35h2.43v23h-33a6 6 0 0 1 -6-6v-34l13-13h25a6 6 0 0 1 6 6z" fill="#e8edfc"/><path d="m47 7v12a2.009 2.009 0 0 0 -1.47.64l-7.42 8.01a2 2 0 0 0 1.46 3.35h2.43v23h-3v-23h-2.43a1.992 1.992 0 0 1 -1.46-3.35l7.42-8.01a2.009 2.009 0 0 1 1.47-.64v-12a6 6 0 0 0 -6-6h3a6 6 0 0 1 6 6z" fill="#cad9fc"/><path d="m54.43 31h-2.43v26a2.006 2.006 0 0 1 -2 2h-6a2.006 2.006 0 0 1 -2-2v-26h-2.43a1.992 1.992 0 0 1 -1.46-3.35l7.42-8.01a2.008 2.008 0 0 1 2.94 0l7.42 8.01a1.992 1.992 0 0 1 -1.46 3.35z" fill="#a4c2f7"/><path d="m55.89 27.65-7.42-8.01a2.008 2.008 0 0 0 -2.94 0l-.03.032 7.39 7.978a1.992 1.992 0 0 1 -1.46 3.35h-2.43v26a2.006 2.006 0 0 1 -2 2h3a2.006 2.006 0 0 0 2-2v-26h2.43a1.992 1.992 0 0 0 1.46-3.35z" fill="#7facfa"/><path d="m3 14h7a6 6 0 0 0 6-6v-7z" fill="#e8edfc"/><path d="m25.559 9.361 1.986 4.223a.623.623 0 0 0 .468.354l4.455.68a.649.649 0 0 1 .347 1.093l-3.235 3.309a.657.657 0 0 0 -.176.565l.762 4.662a.626.626 0 0 1 -.905.675l-3.969-2.189a.6.6 0 0 0 -.584 0l-3.969 2.189a.626.626 0 0 1 -.905-.675l.762-4.662a.657.657 0 0 0 -.176-.565l-3.235-3.309a.649.649 0 0 1 .347-1.093l4.455-.68a.623.623 0 0 0 .468-.354l1.986-4.223a.613.613 0 0 1 1.118 0z" fill="#c6d8fb"/><path d="m42.57 31a2.011 2.011 0 0 1 -.558-.084h.008a1.976 1.976 0 0 0 .55.084z" fill="#fff"/><path d="m6 14v34a6 6 0 0 0 6 6h-3a6 6 0 0 1 -6-6v-34l13-13v3z" fill="#fff"/><path d="m2 13.999h2v8h-2z" fill="#fff"/><g fill="#428dff"><circle cx="3" cy="17.999" r="1"/><path d="m33.913 14.726a1.621 1.621 0 0 0 -1.294-1.1l-4.253-.65-1.9-4.045a1.611 1.611 0 0 0 -2.926 0l-1.9 4.045-4.253.65a1.621 1.621 0 0 0 -1.294 1.1 1.651 1.651 0 0 0 .383 1.685l3.111 3.181-.734 4.493a1.638 1.638 0 0 0 .667 1.615 1.59 1.59 0 0 0 1.7.1l3.78-2.087 3.778 2.087a1.595 1.595 0 0 0 1.7-.1 1.638 1.638 0 0 0 .673-1.616l-.734-4.494 3.113-3.18a1.649 1.649 0 0 0 .383-1.684zm-5.048 3.594a1.664 1.664 0 0 0 -.448 1.426l.641 3.922-3.284-1.812a1.606 1.606 0 0 0 -.774-.2 1.624 1.624 0 0 0 -.775.2l-3.283 1.812.641-3.92a1.666 1.666 0 0 0 -.448-1.428l-2.758-2.82 3.762-.574a1.625 1.625 0 0 0 1.221-.917l1.64-3.487 1.641 3.489a1.622 1.622 0 0 0 1.221.916l3.761.574z"/><path d="m8 31h3a1 1 0 0 0 0-2h-3a1 1 0 1 0 0 2z"/><path d="m15 30a1 1 0 0 0 1 1h18a1 1 0 0 0 0-2h-18a1 1 0 0 0 -1 1z"/><path d="m8 36h16a1 1 0 0 0 0-2h-16a1 1 0 0 0 0 2z"/><path d="m8 41h6a1 1 0 0 0 0-2h-6a1 1 0 0 0 0 2z"/><path d="m11 49a3.772 3.772 0 0 0 3.1-1.4 5.187 5.187 0 0 0 3.9 1.4c4.943 0 5-2.878 5-3a1.022 1.022 0 0 0 -1-1.027.975.975 0 0 0 -1 .971c-.049.366-.739 1.056-3 1.056-2.8 0-2.99-1.678-3-2v-.013a1 1 0 0 0 -2 .007 1.885 1.885 0 0 1 -2 2.006c-1.953 0-2-2.863-2-3a1 1 0 0 0 -2 0c0 1.729.836 5 4 5z"/><path d="m49.2 18.961a2.8 2.8 0 0 0 -1.2-.745v-11.216a7.008 7.008 0 0 0 -7-7h-25v.007a.992.992 0 0 0 -.707.285l-13 13a1 1 0 0 0 .707 1.708h7a7.008 7.008 0 0 0 7-7v-6h24a5.006 5.006 0 0 1 5 5v11.216a2.82 2.82 0 0 0 -1.2.745l-7.425 8.01a2.994 2.994 0 0 0 2.193 5.029h1.432v21h-32a5.006 5.006 0 0 1 -5-5v-26a1 1 0 0 0 -2 0v26a7.008 7.008 0 0 0 7 7h32v2a3 3 0 0 0 3 3h6a3 3 0 0 0 3-3v-25h1.432a2.994 2.994 0 0 0 2.2-5.029zm-34.2-10.961a5.006 5.006 0 0 1 -5 5h-4.586l9.586-9.587zm40.344 21.4a.98.98 0 0 1 -.912.6h-2.432a1 1 0 0 0 -1 1v26a1 1 0 0 1 -1 1h-6a1 1 0 0 1 -1-1v-26a1 1 0 0 0 -1-1h-2.432a.994.994 0 0 1 -.729-1.67l7.425-8.01a1 1 0 0 1 1.472 0l7.425 8.01a.979.979 0 0 1 .183 1.07z"/></g></svg>