<svg xmlns="http://www.w3.org/2000/svg" width="186.862" height="126.452" viewBox="0 0 186.862 126.452"><defs><style>.a{fill:#e2a63b;}.b{fill:#f4b844;}.c{fill:#fedb41;}</style></defs><g transform="translate(0 -78.624)"><path class="a" d="M348.7,317.919v21.275c0,7.226-19.268,13.247-42.952,13.247S263.2,346.621,263.2,339.4v-2.408l-.4-16.86h.2c3.211,6.222,20.874,11.039,42.149,11.039s43.153-6.021,43.153-13.247h.4Z" transform="translate(-161.838 -147.365)"/><path class="b" d="M232.473,112.074v21.074h-.4c0,7.426-19.87,13.247-43.353,13.247a103.008,103.008,0,0,1-27.1-3.011l-.4.4a46.9,46.9,0,0,0-14.852-8.229v-.4l-.6-22.279c1.4,6.824,20.071,12.243,42.751,12.243s43.554-5.821,43.554-13.046Z" transform="translate(-89.768 -20.599)"/><path class="c" d="M232.474,91.876h0c0,7.225-19.87,13.046-43.554,13.046S147.373,99.5,145.969,92.679c0-.2-.2-.6-.2-.8,0-7.225,19.268-13.247,43.153-13.247C212.8,78.429,232.474,84.45,232.474,91.876Z" transform="translate(-89.768)"/><path class="b" d="M262.353,286.666h0l-.2-4.416-.4-18.064c1.4,6.824,20.071,12.243,42.751,12.243s42.751-5.821,43.353-12.845h.2v20.874h-.4c0,7.225-19.469,13.247-43.153,13.247S265.565,292.888,262.353,286.666Z" transform="translate(-161.194 -113.904)"/><path class="a" d="M188.608,329.07a43.065,43.065,0,0,0,11.842-18.465h1c4.416.4,8.831.6,13.648.6h2.007v4.416l.4,16.86H215.3a104,104,0,0,1-26.092-2.81Z" transform="translate(-116.151 -142.861)"/><path class="b" d="M236.614,256.79v1l.4,18.666h-2.007c-5.018,0-9.634-.2-14.049-.6h-1a41.19,41.19,0,0,0,2.007-13.046,40.622,40.622,0,0,0-1-8.63h1c4.215.4,8.43.6,13.046.6l1.806,1A2.182,2.182,0,0,0,236.614,256.79Z" transform="translate(-135.455 -108.113)"/><path class="a" d="M186.4,177.167a103.008,103.008,0,0,0,27.1,3.011c23.483,0,43.353-5.821,43.353-13.247h.4v23.684c-21.877,0-39.741,5.219-41.948,11.842l-1.806-1q-6.623,0-12.645-.6h-1A40.512,40.512,0,0,0,186,177.368Z" transform="translate(-114.543 -54.382)"/><g transform="translate(0 112.146)"><path class="c" d="M85.7,200.205h0a43.931,43.931,0,0,0-14.25-23.884,38.138,38.138,0,0,0-15.254-8.43,38.77,38.77,0,0,0-12.645-2.007,43.154,43.154,0,1,0-.8,86.3,44.026,44.026,0,0,0,29.7-11.441A43.586,43.586,0,0,0,84.5,221.681a39.971,39.971,0,0,0,2.007-12.846C86.507,206.026,85.7,203.015,85.7,200.205Z" transform="translate(0 -165.883)"/><path class="c" d="M347.855,241.627v.4c-.6,7.025-20.071,12.846-43.353,12.846s-41.346-5.419-42.751-12.243v-1a2.548,2.548,0,0,1,.2-1.2c2.208-6.624,20.071-11.842,41.948-11.842h.6C328.186,228.581,347.855,234.4,347.855,241.627Z" transform="translate(-161.194 -204.494)"/></g><path class="a" d="M89.878,221.958a6.623,6.623,0,1,1,6.623-6.623,4.014,4.014,0,0,0,8.028,0,14.814,14.814,0,0,0-10.638-14.049v-1.606a4.014,4.014,0,1,0-8.028,0v1.606a14.016,14.016,0,0,0-10.638,14.049,14.734,14.734,0,0,0,14.652,14.652,6.623,6.623,0,1,1,0,13.247h0a6.682,6.682,0,0,1-6.623-6.623,4.014,4.014,0,0,0-8.028,0,14.631,14.631,0,0,0,10.638,14.049v3.211a4.014,4.014,0,0,0,8.028,0v-3.211a14.473,14.473,0,0,0,9.835-18.265A14.635,14.635,0,0,0,89.878,221.958Z" transform="translate(-46.323 -72.077)"/></g></svg>