<svg xmlns="http://www.w3.org/2000/svg" xmlns:xlink="http://www.w3.org/1999/xlink" width="73" height="74.603" viewBox="0 0 73 74.603"><defs><style>.a{fill:#fff;}.b{fill:#84b5cb;}.c{fill:#d75e72;}.d{fill:#cc4b4c;}.e{fill:#802d40;}.f{filter:url(#a);}</style><filter id="a" x="9.023" y="4.404" width="54.954" height="70.199" filterUnits="userSpaceOnUse"><feOffset dy="3" input="SourceAlpha"/><feGaussianBlur stdDeviation="3" result="b"/><feFlood flood-opacity="0.161"/><feComposite operator="in" in2="b"/><feComposite in="SourceGraphic"/></filter></defs><g transform="translate(-1034 -506)"><path class="a" d="M36.5,0A36.5,36.5,0,1,1,0,36.5,36.5,36.5,0,0,1,36.5,0Z" transform="translate(1034 506)"/><g transform="translate(977.01 516.338)"><path class="b" d="M116.657,385.278v4.683a3.154,3.154,0,0,1-6.309,0V379.586c.08.136.172.262.262.388s.143.216.226.316a.382.382,0,0,1,.046.063c.08.109.163.216.243.325a4.063,4.063,0,0,0,.306.379,1.483,1.483,0,0,0,.189.216.83.83,0,0,0,.08.09c.046.063.1.117.153.18h0l.073.073c.017.027.046.046.063.073s.017,0,.017.017a1.838,1.838,0,0,0,.126.143q.257.284.541.541a.388.388,0,0,0,.09.08l.073.073s0,.017.017,0c.046.053.1.1.143.143a4.337,4.337,0,0,0,.432.378.456.456,0,0,1,.073.063.09.09,0,0,0,.046.036c.243.189.468.379.713.568h0q.366.272.728.514h0c.243.163.485.315.728.468a.186.186,0,0,0,.053.036c.136.08.272.163.415.243h0a1.156,1.156,0,0,0,.18.1.19.19,0,0,0,.046.027,1.832,1.832,0,0,1,.18.1h0Z" transform="translate(-31.664 -340.792)"/><g class="f" transform="matrix(1, 0, 0, 1, 56.99, -10.34)"><path class="c" d="M105.589,23.6a3.338,3.338,0,0,0,.153-1.082c0-2.705-2.705-6.309-5.413-6.309l.415-5.413a8.447,8.447,0,0,0,.485-2.705,5.624,5.624,0,0,0-4.508-5.049V1.766a1.805,1.805,0,0,0-3.608,0v.946a7.818,7.818,0,0,0-2.3.531l-.789-1.965a1.5,1.5,0,0,0-2.832.971l.857,2.994c-2.572,2.994-3.031,7.976-3.057,11.6v1.941c-.577-.216-1.182-.485-1.805-.784a1.056,1.056,0,0,0-.243-.09h-.017A5,5,0,0,0,78.668,19.7V19.69A14.905,14.905,0,0,0,75.06,30.633c0,10.827,1.805,9.021,1.805,9.021a2.489,2.489,0,0,0,.379-.027,16.117,16.117,0,0,0,1.424,2.752,11.652,11.652,0,0,0,.728.992.391.391,0,0,0,.046.063.033.033,0,0,0,.017.027c.017.01,0,.017.027.027a3.743,3.743,0,0,0,.243.3.277.277,0,0,1,.046.063l.189.216a.815.815,0,0,0,.08.09c.046.063.1.116.153.18h0c.027.036.063.063.09.1a.109.109,0,0,1,.046.046h0V44.5a1.459,1.459,0,0,1,.116.116h0l.126.126c.136.143.279.289.415.425.053.053.109.1.163.153s.109.1.163.153a4.346,4.346,0,0,0,.432.379.46.46,0,0,1,.073.063.09.09,0,0,0,.046.036c.243.189.468.379.713.568h0q.366.272.728.514h0c.243.163.485.315.728.468a.189.189,0,0,0,.053.036c.136.08.272.163.415.243h0a1.167,1.167,0,0,0,.18.1.2.2,0,0,0,.046.027,1.812,1.812,0,0,1,.18.1h0V49.06a3.154,3.154,0,0,0,6.1,1.119,11.513,11.513,0,0,0,2.021.243,29.091,29.091,0,0,1,5.539.514c.631.126,1.213.243,1.769.388a22.922,22.922,0,0,0,5.324.9c2.705,0,6.309-1.805,6.309-9.924A38.9,38.9,0,0,0,105.589,23.6ZM87.808,27.656Zm13.4-2.509a1.279,1.279,0,0,1-.18-.036l.18.027Z" transform="translate(-56.99 10.38)"/></g><path class="d" d="M188.362,8.08a8.447,8.447,0,0,1-.485,2.705h-1.029a4.1,4.1,0,0,0-.451.017c-.153.017-.279.017-.425.036s-.243.017-.379.036a9.017,9.017,0,0,0-1.786.379,3.92,3.92,0,0,0-.425.143.671.671,0,0,0-.1.036,4.6,4.6,0,0,0-.485.216c-.046.017-.1.046-.153.073a3.35,3.35,0,0,0-.352.189,3.7,3.7,0,0,0-.352.216,3.024,3.024,0,0,0-.415.279,8.794,8.794,0,0,0-1.264,1.065c-.136.136-.279.279-.405.425a.42.42,0,0,0-.063.063c-.216.243-.425.468-.614.7-.143.163-.272.325-.4.485s-.226.289-.325.432-.216.289-.315.432c-.2.289-.379.577-.551.857a4.606,4.606,0,0,0-.243.415.033.033,0,0,1-.017.027.992.992,0,0,1-.073.136q-.269.542-.485,1.029a3.208,3.208,0,0,0-.126.342,4.214,4.214,0,0,0-.18.677,1.721,1.721,0,0,0-.046.289l.226,1.805c-.08-.036-1.859-1.868-1.941-1.9l-.117-.036-.216-.08c-.624-.216-1.318-.451-2.058-.728a.068.068,0,0,1-.036-.017h-.036l-.1-.046V16.834c.027-3.627.485-8.607,3.057-11.6l-.878-2.989a1.5,1.5,0,0,1,2.832-.971l.784,1.968a7.816,7.816,0,0,1,2.3-.531V1.766a1.805,1.805,0,0,1,3.608,0V3.038a5.624,5.624,0,0,1,4.516,5.042Z" transform="translate(-87.13 0.039)"/><g transform="translate(76.146 0)"><path class="b" d="M88.124,19.73V7.217A10.368,10.368,0,0,0,85.788,1.5.929.929,0,0,1,86.516,0h3.535A3.327,3.327,0,0,1,92.929,1.67a11.038,11.038,0,0,1,1.5,5.549v12.63Z" transform="translate(-85.594 -0.001)"/><path class="b" d="M231.377,108.836a2.242,2.242,0,0,1-2.516,2.2,7.369,7.369,0,0,0-3.882.279l.017.09.027.143.027.143.09.6a8.4,8.4,0,0,1,.063,1v.153a.513.513,0,0,1,0,.116v.252a1.347,1.347,0,0,1-.017.189,2.5,2.5,0,0,1-.036.369,1,1,0,0,1-.027.18h0c-.036.18-.073.352-.116.531l-.027.053a4.107,4.107,0,0,1-.163.468.8.8,0,0,1-.073.153c-.036.063-.063.126-.1.189s-.063.116-.1.172a.483.483,0,0,1-.09.143l-.053.08c-.017.017-.027.027-.027.036l-.027.027a2.737,2.737,0,0,1-.243.3,2.02,2.02,0,0,0-.189.216.17.17,0,0,0-.053.063l-.027.027a1.7,1.7,0,0,0-.18.262.068.068,0,0,1-.017.036,24.815,24.815,0,0,1-4.042.3,3.928,3.928,0,0,1-.551-.027,11.018,11.018,0,0,1-2.868-.667c-.126-.046-.243-.09-.361-.143s-.243-.109-.369-.163a1.291,1.291,0,0,1-.163-.073,7.337,7.337,0,0,1-.667-.379H214.6a2.725,2.725,0,0,0-.524-.485h0a1.385,1.385,0,0,1-.1-.728h0a1.569,1.569,0,0,1,.036-.289,4.2,4.2,0,0,1,.18-.677,3.236,3.236,0,0,1,.126-.342q.2-.488.485-1.029a.984.984,0,0,0,.073-.136s.017-.017.017-.027c.073-.136.153-.279.243-.415.172-.279.352-.568.551-.857.1-.143.209-.289.315-.432s.209-.289.325-.432.243-.325.4-.485c.189-.243.4-.468.614-.7a.418.418,0,0,1,.063-.063c.126-.143.272-.289.405-.425a8.788,8.788,0,0,1,1.264-1.065,4.145,4.145,0,0,1,.415-.279,3.7,3.7,0,0,1,.352-.216,3.343,3.343,0,0,1,.352-.189c.053-.027.109-.053.153-.073.172-.08.325-.153.485-.216a.669.669,0,0,1,.1-.036,3.9,3.9,0,0,1,.425-.143,9.026,9.026,0,0,1,1.786-.378c.126-.017.243-.027.379-.036s.279-.027.425-.036.306-.017.451-.017h1.514a13.068,13.068,0,0,1,4.006.84,2.24,2.24,0,0,1,1.463,2.045Z" transform="translate(-200.797 -95.078)"/></g><path class="d" d="M178.237,472.949a3.154,3.154,0,0,1-6.1-1.118v-1.056c.272.153.551.3.83.425h0a16.124,16.124,0,0,0,1.66.713h0c.262.1.524.2.784.279s.514.172.757.243.442.136.658.189c.063.017.126.027.18.046.2.053.388.1.577.136S178.04,472.913,178.237,472.949Z" transform="translate(-87.146 -422.664)"/><g transform="translate(75.018 16.247)"><path class="e" d="M299.522,259.978a.905.905,0,0,1-.9.9,2.184,2.184,0,0,1-1.317-.568,3.609,3.609,0,0,1-.75,1.213.906.906,0,0,1-1.281-1.281,3.258,3.258,0,0,0,.631-1.839,9.4,9.4,0,0,0-1.941-2.138,20.771,20.771,0,0,1-1.885,5.214,16.017,16.017,0,0,0-1.48,3.916c-.558-.136-1.136-.262-1.769-.388a18.087,18.087,0,0,1,1.616-4.3,14.592,14.592,0,0,0,1.868-6.134,6.4,6.4,0,0,0-1.228-3.154c-.206-.352-.432-.728-.641-1.109a3.317,3.317,0,0,1-2.642,1.55.9.9,0,1,1,0-1.805c.956,0,1.7-1.623,1.849-2.075a4.815,4.815,0,0,1-.046-.631,35.794,35.794,0,0,1,1.776-8.192c.036-.117.063-.189.073-.216a.9.9,0,0,1,1.759.243,1.039,1.039,0,0,1-.046.335c0,.027-.461,1.39-.912,3.067,0,.027.027.046.036.073s.847,3.97,3.843,4.719a5.738,5.738,0,0,1,3.319,3.23.9.9,0,0,1-.485,1.182.971.971,0,0,1-.352.073.9.9,0,0,1-.83-.551c-.226-.514-1.029-1.912-2.094-2.184a6.692,6.692,0,0,1-4.142-3.4,11.482,11.482,0,0,0-.153,1.623,6.4,6.4,0,0,0,1.228,3.154,8.752,8.752,0,0,1,1.456,3.581,12.334,12.334,0,0,1,3.538,3.691c.551,1.092,1.009,1.291,1.082,1.308a.91.91,0,0,1,.822.89Z" transform="translate(-265.191 -230.215)"/><path class="e" d="M203.149,252.581a6.739,6.739,0,0,1-2.082-1.538h0a5.928,5.928,0,0,1-.638-2.972.9.9,0,0,0-.9-.9h0a.9.9,0,0,0-.9.9,7.107,7.107,0,0,0,1.167,4.246,3.546,3.546,0,0,1,.638,2.07.9.9,0,0,0,1.805,0v-.243a2.271,2.271,0,0,0,.91.243.91.91,0,0,0,.91-.9.9.9,0,0,0-.9-.9Z" transform="translate(-185.944 -238.161)"/><path class="e" d="M158.995,297.646a5.855,5.855,0,0,1-1.844-.264v-.015a36.223,36.223,0,0,0-.881-5.35.9.9,0,0,0-1.749.437,31.3,31.3,0,0,1,.876,6.1,4.8,4.8,0,0,0,2.3,4.416.887.887,0,0,0,.4.095.905.905,0,0,0,.42-1.7,2.851,2.851,0,0,1-1.257-2.065,8.728,8.728,0,0,0,1.742.16.9.9,0,1,0,0-1.805Z" transform="translate(-146.312 -277.805)"/><path class="e" d="M90.4,179.724c0,4.511-8.119,9.924-9.924,11.729a3.45,3.45,0,0,0-.561.75,2.63,2.63,0,0,0-.209.425,15.1,15.1,0,0,0-.65,2.031c-.046.163-.1.325-.153.485a.51.51,0,0,1-.036.109h0a.3.3,0,0,1-.036.1,3.134,3.134,0,0,1-.189.432c-.063.109-.126.206-.189.306a2.238,2.238,0,0,1-.226.272,1.592,1.592,0,0,1-.272.216,1.767,1.767,0,0,1-.514.216,1.275,1.275,0,0,1-.2.036h0a2.5,2.5,0,0,1-.379.027s-1.805,1.805-1.805-9.021a14.906,14.906,0,0,1,3.608-10.943v.017a5,5,0,0,1,4.258-1.786h.017a1.048,1.048,0,0,1,.243.09c.624.306,1.228.568,1.805.784h0c.036,0,.063.027.1.036h.036a.068.068,0,0,0,.036.017c.728.279,1.434.514,2.058.728l.216.08.116.036c.09.036.18.063.262.1h0a7.811,7.811,0,0,1,1.55.728h0a2.723,2.723,0,0,1,.524.485h0c.063.09.136.18.2.279a.033.033,0,0,0,.017.027,1.773,1.773,0,0,1,.143.325,1.864,1.864,0,0,1,.09.388A2.31,2.31,0,0,1,90.4,179.724Z" transform="translate(-75.015 -173.417)"/><path class="e" d="M313.345,165.209a3.333,3.333,0,0,1-.153,1.082c-.027.063-.046.126-.073.189a1.685,1.685,0,0,1-.3.485c-.053.063-.109.116-.163.172a.6.6,0,0,1-.162.136,2.673,2.673,0,0,1-.594.325.967.967,0,0,1-.243.08,2.244,2.244,0,0,1-.262.073,5.653,5.653,0,0,1-.728.116,2.392,2.392,0,0,1-.262.017c-.09,0-.189.017-.289.017h-.379a4.226,4.226,0,0,1-2.861-.939c-.063-.053-.116-.116-.172-.172a2.041,2.041,0,0,1-.243-.388c-.027-.063-.053-.136-.08-.209a.772.772,0,0,1-.046-.206,1.634,1.634,0,0,1-.017-.206.99.99,0,0,1,.017-.226.932.932,0,0,1,.046-.216c.017-.053.036-.1.053-.153a.431.431,0,0,1,.027-.063,1.043,1.043,0,0,1,.109-.226.068.068,0,0,0,.017-.036,1.7,1.7,0,0,1,.179-.262l.027-.027a.169.169,0,0,1,.053-.063,2.016,2.016,0,0,1,.189-.216,2.751,2.751,0,0,0,.243-.3l.027-.027s0-.017.027-.036l.053-.08a.483.483,0,0,0,.09-.143c.036-.053.063-.109.1-.172s.063-.126.1-.189a.79.79,0,0,0,.073-.153,4.138,4.138,0,0,0,.162-.468l.027-.053c.046-.18.08-.352.116-.531h0a1.334,1.334,0,0,1,.027-.18c.017-.126.027-.243.036-.369a1.394,1.394,0,0,0,.017-.189v-.252a.5.5,0,0,0,0-.116v-.153a8.4,8.4,0,0,0-.063-1c-.027-.243-.063-.442-.09-.6l-.027-.143-.027-.143-.017-.09C310.639,158.9,313.345,162.5,313.345,165.209Z" transform="translate(-282.619 -158.9)"/></g></g></g></svg>