<svg xmlns="http://www.w3.org/2000/svg" width="288" height="280" viewBox="0 0 288 280"><defs><style>.a{fill:#3b4358;opacity:0.69;}.b{fill:#fff;}.c{fill:#f5aa4b;font-size:14px;font-family:Cairo-Bold, Cairo;font-weight:700;}.d{fill:#3de9f2;}.e{fill:#00cef2;}.f{fill:#70ffff;}.g{fill:#fddbcc;}.h{fill:#fbcdbe;}.i{fill:#00347b;}.j{fill:#002860;}</style></defs><g transform="translate(-1435 -1045)"><path class="a" d="M9.4,0H278.6c5.194,0,9.4,3.582,9.4,8V272c0,4.418-4.21,8-9.4,8H9.4C4.21,280,0,276.418,0,272V8C0,3.582,4.21,0,9.4,0Z" transform="translate(1435 1045)"/><g transform="translate(359 53)"><g transform="translate(-242.129 523.924)"><rect class="b" width="156" height="40" rx="8" transform="translate(1382.129 608.076)"/><text class="c" transform="translate(1427.129 633.076)"><tspan x="0" y="0">احجز الآن</tspan></text></g><g transform="translate(1250.42 1123.743)"><path class="d" d="M21.574,15.5H5.585a5.585,5.585,0,0,0,0,11.17h15.99a5.585,5.585,0,0,0,0-11.17Z" transform="translate(0)"/><path class="e" d="M234.968,21.085a5.592,5.592,0,0,1-5.585,5.585H219.45V15.5h9.933A5.591,5.591,0,0,1,234.968,21.085Z" transform="translate(-207.809)"/><path class="f" d="M49.983,53.487H33.994a3.994,3.994,0,1,1,0-7.987H49.983a3.994,3.994,0,0,1,0,7.987Z" transform="translate(-28.409 -28.409)"/><path class="d" d="M233.377,49.494a4,4,0,0,1-3.994,3.994H219.45V45.5h9.933A4,4,0,0,1,233.377,49.494Z" transform="translate(-207.809 -28.409)"/><path class="g" d="M113.559,117.47v6.11l-.233.265H102.783l-.363-.266-3.749-3.145a1.978,1.978,0,1,1,2.543-3.03l1.206,1.012v-9.927a1.989,1.989,0,1,1,3.978,0v6.051l5.037.557a2.385,2.385,0,0,1,2.124,2.373Z" transform="translate(-92.768 -86.173)"/><path class="h" d="M228.6,117.47v6.11l-.233.265H219.45V106.5a1.991,1.991,0,0,1,1.989,1.989v6.051l5.037.558A2.385,2.385,0,0,1,228.6,117.47Z" transform="translate(-207.809 -86.173)"/><path class="i" d="M193.09,428.5v2.811a.8.8,0,0,1-.8.8h-9.548a.8.8,0,0,1-.8-.8V428.5Z" transform="translate(-172.298 -391.092)"/><path class="j" d="M228.6,428.5v2.811a.8.8,0,0,1-.8.8H219.45V428.5Z" transform="translate(-207.809 -391.092)"/><path class="e" d="M307.032,75.734a.8.8,0,0,0-1.125,0l-2.62,2.62-1.029-1.029a.8.8,0,1,0-1.125,1.125l1.591,1.591a.8.8,0,0,0,1.125,0l3.183-3.183A.8.8,0,0,0,307.032,75.734Z" transform="translate(-284.938 -56.818)"/></g></g></g></svg>