<svg xmlns="http://www.w3.org/2000/svg" xmlns:xlink="http://www.w3.org/1999/xlink" width="73" height="73" viewBox="0 0 73 73"><defs><style>.a{fill:#fff;}.b{fill:#ffd7a3;}.c{fill:#fdc88e;}.d{fill:#0071b7;}.e{fill:#ffe1b2;}.f{fill:#623f33;}.g{fill:#e4b07b;}.h{fill:#f5aa4b;}.i{filter:url(#a);}</style><filter id="a" x="10.78" y="38.991" width="51.669" height="33.915" filterUnits="userSpaceOnUse"><feOffset dy="3" input="SourceAlpha"/><feGaussianBlur stdDeviation="3" result="b"/><feFlood flood-opacity="0.161"/><feComposite operator="in" in2="b"/><feComposite in="SourceGraphic"/></filter></defs><g transform="translate(-1046 -505)"><circle class="a" cx="36.5" cy="36.5" r="36.5" transform="translate(1046 505)"/><g transform="translate(990.596 516.094)"><path class="b" d="M108.834,46.914l-1.086-8.7a3.437,3.437,0,0,0-2.323-2.833l-4.191-1.4a1.717,1.717,0,0,0-1.652.308l-1.241-.4a1.717,1.717,0,0,1-1.174-1.63V29.486l3.7-1.542a5.163,5.163,0,0,0,3.172-4.756V22.33a2.577,2.577,0,0,0,1.953-4.265c.73-2.653,2.779-11.048.624-14.638L107.478,0A65.877,65.877,0,0,0,93.736,1.717L95.455,0S83.377,0,80.865,4.294h0s-4.3-.029-4.3,5.154a57.814,57.814,0,0,0,1.513,8.59A2.577,2.577,0,0,0,80,22.33v.86a5.163,5.163,0,0,0,3.165,4.756l3.7,1.542v2.768a1.717,1.717,0,0,1-1.174,1.63l-1.235.411a1.717,1.717,0,0,0-1.652-.308l-4.191,1.4A3.434,3.434,0,0,0,76.29,38.22L75.2,46.914a2.577,2.577,0,0,0,2.557,2.9h28.507a2.577,2.577,0,0,0,2.566-2.9Z" transform="translate(0)"/><g transform="translate(86.008 29.486)"><path class="c" d="M187.149,274.667H176.844v2.768a1.7,1.7,0,0,1-.86,1.466,11.69,11.69,0,0,0,11.165-4.234Z" transform="translate(-175.984 -274.667)"/></g><g transform="translate(76.56)"><path class="d" d="M89.717,18.9A68.692,68.692,0,0,1,88,9.448c0-5.19,4.294-5.163,4.294-5.163h0C94.817,0,106.9,0,106.9,0l-1.717,1.717A65.877,65.877,0,0,1,118.918,0l-.86,3.434c2.577,4.294-.86,15.459-.86,15.459Z" transform="translate(-88)"/></g><g transform="translate(76.56)"><path class="d" d="M106.9,0S94.817,0,92.305,4.294h0S88,4.265,88,9.448A68.688,68.688,0,0,0,89.717,18.9s17.856-7.982,29.2-18.9a65.877,65.877,0,0,0-13.742,1.717Z" transform="translate(-88)"/></g><path class="e" d="M122.627,110.011v-1.717A4.294,4.294,0,0,0,118.333,104H102.873a4.294,4.294,0,0,0-4.294,4.294v1.717a2.581,2.581,0,0,0,0,5.163v.86a5.163,5.163,0,0,0,3.172,4.757L107.3,123.1a8.588,8.588,0,0,0,3.3.66h0a8.588,8.588,0,0,0,3.3-.66l5.549-2.312a5.163,5.163,0,0,0,3.172-4.756v-.86a2.581,2.581,0,1,0,0-5.163Z" transform="translate(-18.583 -92.835)"/><g transform="translate(85.148 18.034)"><path class="f" d="M168.86,170.578h0a.862.862,0,0,1-.86-.86v-.86a.862.862,0,0,1,.86-.86h0a.862.862,0,0,1,.86.86v.86a.862.862,0,0,1-.86.86Z" transform="translate(-168 -167.999)"/></g><g transform="translate(97.173 18.034)"><path class="f" d="M280.86,170.578h0a.862.862,0,0,1-.86-.86v-.86a.862.862,0,0,1,.86-.86h0a.862.862,0,0,1,.86.86v.86a.862.862,0,0,1-.86.86Z" transform="translate(-280 -167.999)"/></g><g transform="translate(87.691 24.027)"><g transform="translate(0 0)"><path class="g" d="M196.312,226.611a7.154,7.154,0,0,1-3.919-1.03.86.86,0,1,1,.965-1.421,6.308,6.308,0,0,0,5.9,0,.86.86,0,0,1,.965,1.421,7.153,7.153,0,0,1-3.915,1.03Z" transform="translate(-191.984 -223.989)"/></g></g><g transform="translate(75.184 33.897)"><g class="i" transform="matrix(1, 0, 0, 1, -19.78, -44.99)"><path class="h" d="M108.834,328.787l-1.086-8.7a3.434,3.434,0,0,0-2.323-2.833l-4.191-1.4a1.69,1.69,0,0,0-1.964.673,8.579,8.579,0,0,1-14.5,0,1.69,1.69,0,0,0-1.964-.673l-4.191,1.4a3.435,3.435,0,0,0-2.323,2.833l-1.086,8.7a2.577,2.577,0,0,0,2.557,2.9h28.507a2.577,2.577,0,0,0,2.566-2.9Z" transform="translate(-55.4 -270.78)"/></g></g><g transform="translate(75.193 36.519)"><path class="h" d="M77.01,340.168a3.428,3.428,0,0,0-.716,1.7l-1.086,8.7a2.577,2.577,0,0,0,2.557,2.9h4.81v-5.592a3.436,3.436,0,0,0-.84-2.245Z" transform="translate(-75.188 -340.168)"/></g><g transform="translate(101.467 36.519)"><path class="h" d="M325.565,340.168a3.428,3.428,0,0,1,.716,1.7l1.086,8.7a2.577,2.577,0,0,1-2.557,2.9H320v-5.592a3.436,3.436,0,0,1,.839-2.245Z" transform="translate(-320 -340.168)"/></g><path class="b" d="M103.087,119a4.027,4.027,0,0,1-1.073-2.752v-9.733A89.536,89.536,0,0,0,118.333,104H102.873a4.043,4.043,0,0,0-.86.094h0a4.3,4.3,0,0,0-3.434,4.209v1.717a2.581,2.581,0,0,0,0,5.163v.86a5.163,5.163,0,0,0,3.172,4.756l5.549,2.312a8.6,8.6,0,0,0,.831.294,35.85,35.85,0,0,1-5.044-4.4Z" transform="translate(-18.583 -92.836)"/></g></g></svg>