<svg xmlns="http://www.w3.org/2000/svg" width="129.332" height="129.332" viewBox="0 0 129.332 129.332"><defs><style>.a{fill:#fff;}.b{opacity:0.47;}.c{fill:#5795bc;}</style></defs><g transform="translate(-661 -502)"><g transform="translate(-285 242)"><circle class="a" cx="64.666" cy="64.666" r="64.666" transform="translate(946 260)"/></g><g class="b" transform="translate(647 536)"><g transform="translate(56)"><path class="c" d="M101.573,0H57.013A1.013,1.013,0,0,0,56,1.013V59.751a1.013,1.013,0,0,0,1.013,1.013H89.42a1.013,1.013,0,0,0,.716-.3l12.153-12.153a1.013,1.013,0,0,0,.3-.716V1.013A1.013,1.013,0,0,0,101.573,0ZM90.433,57.306v-8.7h8.7ZM100.56,46.585H89.42A1.013,1.013,0,0,0,88.407,47.6v11.14H58.025V2.025H100.56Z" transform="translate(-56)"/></g><g transform="translate(62.076 28.356)"><g transform="translate(0)"><path class="c" d="M109.064,224h-4.051a1.013,1.013,0,0,0,0,2.025h4.051a1.013,1.013,0,1,0,0-2.025Z" transform="translate(-104 -224)"/></g></g><g transform="translate(70.178 28.356)"><path class="c" d="M193.318,224H169.013a1.013,1.013,0,1,0,0,2.025h24.305a1.013,1.013,0,1,0,0-2.025Z" transform="translate(-168 -224)"/></g><g transform="translate(62.076 34.433)"><g transform="translate(0)"><path class="c" d="M109.064,272h-4.051a1.013,1.013,0,1,0,0,2.025h4.051a1.013,1.013,0,1,0,0-2.025Z" transform="translate(-104 -272)"/></g></g><g transform="translate(70.178 34.433)"><path class="c" d="M193.318,272H169.013a1.013,1.013,0,1,0,0,2.025h24.305a1.013,1.013,0,1,0,0-2.025Z" transform="translate(-168 -272)"/></g><g transform="translate(62.076 40.509)"><g transform="translate(0)"><path class="c" d="M109.064,320h-4.051a1.013,1.013,0,1,0,0,2.025h4.051a1.013,1.013,0,1,0,0-2.025Z" transform="translate(-104 -320)"/></g></g><g transform="translate(70.178 40.509)"><path class="c" d="M193.318,320H169.013a1.013,1.013,0,1,0,0,2.025h24.305a1.013,1.013,0,1,0,0-2.025Z" transform="translate(-168 -320)"/></g><g transform="translate(62.076 6.076)"><g transform="translate(0)"><path class="c" d="M116.1,62.72l-3.581-3.58,3.581-3.58a1.013,1.013,0,0,0-1.407-1.457l-.025.025-3.581,3.58-3.632-3.632h1.606a3.038,3.038,0,0,0,0-6.076h-4.051A1.013,1.013,0,0,0,104,49.013v11.14a1.013,1.013,0,1,0,2.025,0V55.508l3.632,3.632-3.581,3.58a1.013,1.013,0,0,0,1.407,1.457l.025-.025,3.581-3.58,3.581,3.58a1.013,1.013,0,1,0,1.457-1.407ZM106.025,50.025h3.038a1.013,1.013,0,1,1,0,2.025h-3.038Z" transform="translate(-104 -48)"/></g></g></g></g></svg>