<svg xmlns="http://www.w3.org/2000/svg" width="107.144" height="118.782" viewBox="0 0 107.144 118.782"><defs><style>.a{fill:#efefef;}.b{fill:#f5aa4b;}.c{fill:#b7bfc8;}.d{fill:#ffde55;}.e{fill:#ffb655;}</style></defs><g transform="translate(-906.929 -404.052)"><g transform="translate(903.939 403.469)"><path class="a" d="M23.047,107.147c23.587,0,39.785,12.218,51.151,12.218s35.236-6.534,35.236-58.82S77.321.583,64.82.583C6.28.583-18.726,107.147,23.047,107.147Z" transform="translate(0.699 0)"/><g transform="translate(5.41 8.825)"><path class="b" d="M3,6.5H9.82V9.91H3Z" transform="translate(-3 5.435)"/><path class="b" d="M6.5,3H9.91V9.82H6.5Z" transform="translate(5.435 -3)"/><path class="b" d="M33.865,13.48A5.115,5.115,0,1,1,38.98,8.365,5.121,5.121,0,0,1,33.865,13.48Zm0-6.82A1.705,1.705,0,1,0,35.57,8.365,1.708,1.708,0,0,0,33.865,6.66Z" transform="translate(59.059 -2.397)"/></g><g transform="translate(20.061 26.031)"><g transform="translate(10.691)"><path class="c" d="M100.65,0A36.382,36.382,0,0,0,74.842,10.692l4.15,5.571c.228-.244.46-.486.7-.724a29.643,29.643,0,0,1,41.921,41.921l-.474,5.061,5.322-.212A36.5,36.5,0,0,0,100.65,0Z" transform="translate(-74.842)"/></g><g transform="translate(0 10.691)"><path class="c" d="M57.46,121.6A29.643,29.643,0,0,1,15.539,79.683L10.69,74.834a36.5,36.5,0,0,0,51.619,51.619Z" transform="translate(0 -74.834)"/></g><g transform="translate(1.528 13.443)"><g transform="translate(0 0)"><path class="d" d="M53.188,135.468H10.7V94.1H26.524l6.4,2.746L37.361,94.1H53.188Z" transform="translate(-10.697 -94.1)"/></g><g transform="translate(42.491 0)"><g transform="translate(0)"><path class="e" d="M0,0H15.716V41.368H0Z" transform="translate(15.716 41.368) rotate(180)"/></g></g><g transform="translate(15.827 0)"><path class="e" d="M121.483,94.1h10.838v13.051H121.483Z" transform="translate(-121.483 -94.1)"/></g></g><g transform="translate(10.599 10.725)"><g transform="translate(0 0)"><path class="c" d="M0,0H66.055V6.857H0Z" transform="translate(0 46.701) rotate(-45)"/></g></g><g transform="translate(4.917 54.811)"><path class="c" d="M86.967,386.328a29.643,29.643,0,0,1-41.921,0,30.158,30.158,0,0,1-2.354-2.65H34.424a36.523,36.523,0,0,0,57.392,7.5Z" transform="translate(-34.424 -383.678)"/></g></g></g></g></svg>