<svg xmlns="http://www.w3.org/2000/svg" xmlns:xlink="http://www.w3.org/1999/xlink" width="73" height="73" viewBox="0 0 73 73"><defs><style>.a{fill:#fff;}.b{fill:#00c1e4;}.c{fill:#003554;}.d{fill:#9de3fb;}.e{fill:#0071b7;}.f{fill:#f3f5fb;}.g{fill:#dbe2eb;}.h{fill:#f5aa4b;}.i{fill:#ffb5ac;}.j{fill:#ff9c97;}.k{filter:url(#i);}.l{filter:url(#g);}.m{filter:url(#e);}.n{filter:url(#c);}.o{filter:url(#a);}</style><filter id="a" x="5.334" y="21.365" width="62.359" height="45.64" filterUnits="userSpaceOnUse"><feOffset dy="3" input="SourceAlpha"/><feGaussianBlur stdDeviation="3" result="b"/><feFlood flood-opacity="0.161"/><feComposite operator="in" in2="b"/><feComposite in="SourceGraphic"/></filter><filter id="c" x="27.553" y="21.365" width="40.139" height="45.638" filterUnits="userSpaceOnUse"><feOffset dy="3" input="SourceAlpha"/><feGaussianBlur stdDeviation="3" result="d"/><feFlood flood-opacity="0.161"/><feComposite operator="in" in2="d"/><feComposite in="SourceGraphic"/></filter><filter id="e" x="19.035" y="26.704" width="34.957" height="34.957" filterUnits="userSpaceOnUse"><feOffset dy="3" input="SourceAlpha"/><feGaussianBlur stdDeviation="3" result="f"/><feFlood flood-opacity="0.161"/><feComposite operator="in" in2="f"/><feComposite in="SourceGraphic"/></filter><filter id="g" x="5.338" y="21.365" width="62.357" height="36.159" filterUnits="userSpaceOnUse"><feOffset dy="3" input="SourceAlpha"/><feGaussianBlur stdDeviation="3" result="h"/><feFlood flood-opacity="0.161"/><feComposite operator="in" in2="h"/><feComposite in="SourceGraphic"/></filter><filter id="i" x="27.589" y="25.872" width="37.65" height="32.429" filterUnits="userSpaceOnUse"><feOffset dy="3" input="SourceAlpha"/><feGaussianBlur stdDeviation="3" result="j"/><feFlood flood-opacity="0.161"/><feComposite operator="in" in2="j"/><feComposite in="SourceGraphic"/></filter></defs><g transform="translate(-1034 -506)"><path class="a" d="M36.5,0A36.5,36.5,0,1,1,0,36.5,36.5,36.5,0,0,1,36.5,0Z" transform="translate(1034 506)"/><g transform="translate(-208.675 -1241.501)"><g transform="translate(1256.981 1765.496)"><path class="b" d="M242.152,6.6a1.308,1.308,0,0,0,1.3-1.3v-4a1.3,1.3,0,0,0-2.6,0V5.311A1.308,1.308,0,0,0,242.152,6.6Zm0,0" transform="translate(-219.957 0.003)"/><path class="c" d="M4.136,97.669a1.3,1.3,0,0,0,.921-2.217L2.228,92.62a1.3,1.3,0,1,0-1.84,1.836l2.827,2.832a1.3,1.3,0,0,0,.921.381Zm0,0" transform="translate(0.013 -84.244)"/><path class="d" d="M450.679,97.654a1.3,1.3,0,0,0,.921-.381l2.827-2.832a1.3,1.3,0,0,0-1.84-1.836l-2.827,2.839a1.3,1.3,0,0,0,.921,2.217Zm0,0" transform="translate(-410.413 -84.229)"/><path class="e" d="M255.117,0h.064a1.308,1.308,0,0,1,1.3,1.3V5.306a1.308,1.308,0,0,1-1.3,1.3h-.064Zm0,0" transform="translate(-232.985)"/><g class="o" transform="matrix(1, 0, 0, 1, -14.31, -18)"><path class="f" d="M13.559,133.673a32.868,32.868,0,0,1-6.914-4.479,42.034,42.034,0,0,1-6.328-6.484,1.308,1.308,0,0,1,0-1.555,42.024,42.024,0,0,1,6.328-6.484,32.868,32.868,0,0,1,6.914-4.479,20.409,20.409,0,0,1,8.681-2.08,20.409,20.409,0,0,1,8.681,2.08,32.868,32.868,0,0,1,6.914,4.479,41.99,41.99,0,0,1,6.328,6.484,1.308,1.308,0,0,1,0,1.555,42,42,0,0,1-6.328,6.484,32.856,32.856,0,0,1-6.914,4.479,20.409,20.409,0,0,1-8.681,2.08,20.414,20.414,0,0,1-8.681-2.08Zm0,0" transform="translate(14.27 -80.75)"/></g><g class="n" transform="matrix(1, 0, 0, 1, -14.31, -18)"><path class="g" d="M256.469,108.121a20.426,20.426,0,0,1,8.641,2.078,32.856,32.856,0,0,1,6.914,4.479,42.014,42.014,0,0,1,6.328,6.484,1.308,1.308,0,0,1,0,1.555,42.045,42.045,0,0,1-6.328,6.484,32.87,32.87,0,0,1-6.914,4.479,20.431,20.431,0,0,1-8.641,2.08Zm0,0" transform="translate(-219.92 -80.76)"/></g><g class="m" transform="matrix(1, 0, 0, 1, -14.31, -18)"><path class="e" d="M158.18,178.232a8.479,8.479,0,1,1,8.477,8.477A8.479,8.479,0,0,1,158.18,178.232Zm0,0" transform="translate(-130.14 -137.05)"/></g><path class="e" d="M256.469,169.758a8.478,8.478,0,1,1,0,16.956Zm0,0" transform="translate(-234.221 -155.046)"/><path class="a" d="M243.03,247.649a1.308,1.308,0,0,0,1.3-1.308v-1.284a1.3,1.3,0,0,0-2.6,0v1.284a1.308,1.308,0,0,0,1.3,1.308Zm0,0" transform="translate(-220.759 -222.638)"/><g class="l" transform="matrix(1, 0, 0, 1, -14.31, -18)"><path class="h" d="M6.909,114.457a32.585,32.585,0,0,1,6.65-4.263,20.414,20.414,0,0,1,8.681-2.08,20.414,20.414,0,0,1,8.681,2.08,32.614,32.614,0,0,1,6.673,4.274c1.645,1.4,3.612,3.369,5.316,5.154.773.89,1.212,1.472,1.253,1.526a1.3,1.3,0,0,1,.249.932v.028a1.3,1.3,0,0,1-.245.6,37.18,37.18,0,0,1-3.027,3.444l-.1-.056c-.574-.355-4.564-4.327-5.172-4.978l-.011-.011-.011-.011c-.847-.842-1.722-1.635-2.6-2.35-2.695-2.2-6.791-4.827-11-4.827-2.361,0-6.214.862-11.172,4.965-.677.561-5.514,5.328-7.6,7.393a37.559,37.559,0,0,1-3.148-3.566,1.308,1.308,0,0,1,0-1.555c.046-.062.58-.772,1.524-1.835,1.848-1.88,3.707-3.7,5.069-4.865Zm0,0" transform="translate(14.27 -80.75)"/></g><path class="h" d="M256,108.113h0a20.414,20.414,0,0,1,8.681,2.08,32.615,32.615,0,0,1,6.667,4.276c1.645,1.4,3.612,3.369,5.316,5.154.773.89,1.212,1.472,1.253,1.526a1.3,1.3,0,0,1,.249.932v.028a1.3,1.3,0,0,1-.245.6,37.187,37.187,0,0,1-3.027,3.444l-.1-.056c-.574-.355-4.564-4.327-5.172-4.978l-.011-.011-.011-.011c-.847-.842-1.722-1.635-2.6-2.35-2.695-2.2-6.791-4.827-11-4.827h0Zm0,0" transform="translate(-233.788 -98.743)"/><path class="i" d="M36.645,165.378c5.252-4.351,9.425-5.264,12-5.264,2.538,0,6.65.888,11.827,5.121.909.744,1.815,1.562,2.692,2.433l.056.057c.59.63,4.072,4.008,5.153,5.054-.5.54-1.083,1.145-1.735,1.764-1.011-.944-4.966-4.673-5.308-5.038a33.409,33.409,0,0,0-2.5-2.26c-4.587-3.746-8.062-4.539-10.187-4.539-3.892,0-7.772,2.538-10.343,4.665-.442.366-3.388,3.233-7.5,7.3-.314-.3-.61-.59-.891-.873l-.031-.033q-.491-.491-.906-.942c2.073-2.051,6.94-6.847,7.674-7.457Zm0,0" transform="translate(-26.438 -146.238)"/><g class="k" transform="matrix(1, 0, 0, 1, -14.31, -18)"><path class="j" d="M256.883,160.121c2.543.018,6.624.929,11.751,5.12.909.742,1.815,1.562,2.692,2.433l.056.057c.59.63,4.072,4.008,5.153,5.054-.5.54-1.084,1.145-1.735,1.764-1.011-.944-4.966-4.673-5.308-5.036a33.406,33.406,0,0,0-2.5-2.26c-4.529-3.7-7.985-4.515-10.106-4.534Zm0,0" transform="translate(-220.29 -128.25)"/></g></g></g></g></svg>