<svg xmlns="http://www.w3.org/2000/svg" width="107.144" height="118.782" viewBox="0 0 107.144 118.782"><defs><style>.a{fill:#efefef;}.b{fill:#f3f3f1;}.c{fill:#f5aa4b;}.d{fill:#d5dbe1;}.e{fill:#70788d;}.f{fill:#fff;}</style></defs><g transform="translate(-906.929 -404.052)"><g transform="translate(903.939 403.469)"><path class="a" d="M23.047,107.147c23.587,0,39.785,12.218,51.151,12.218s35.236-6.534,35.236-58.82S77.321.583,64.82.583C6.28.583-18.726,107.147,23.047,107.147Z" transform="translate(0.699 0)"/><path class="b" d="M76.656,83.476H13.57a6.818,6.818,0,0,1-6.82-6.82V13.57a6.818,6.818,0,0,1,6.82-6.82H76.656a6.818,6.818,0,0,1,6.82,6.82V76.656A6.818,6.818,0,0,1,76.656,83.476Z" transform="translate(11.448 14.863)"/><g transform="translate(5.41 8.825)"><path class="c" d="M3,6.5H9.82V9.91H3Z" transform="translate(-3 5.435)"/><path class="c" d="M6.5,3H9.91V9.82H6.5Z" transform="translate(5.435 -3)"/><path class="c" d="M33.865,13.48A5.115,5.115,0,1,1,38.98,8.365,5.121,5.121,0,0,1,33.865,13.48Zm0-6.82A1.705,1.705,0,1,0,35.57,8.365,1.708,1.708,0,0,0,33.865,6.66Z" transform="translate(59.059 -2.397)"/></g></g><g transform="translate(882.365 384.95)"><path class="d" d="M46,77.817V63.261A5.261,5.261,0,0,1,51.261,58h63.086a5.261,5.261,0,0,1,5.261,5.261V77.817" transform="translate(-5.169 -15.507)"/><path class="e" d="M114.439,75.48a2.829,2.829,0,0,1-2.831-2.831V58.092a2.432,2.432,0,0,0-2.43-2.43H46.092a2.432,2.432,0,0,0-2.43,2.43V72.649a2.831,2.831,0,0,1-5.662,0V58.092A8.1,8.1,0,0,1,46.092,50h63.085a8.1,8.1,0,0,1,8.092,8.092V72.649A2.829,2.829,0,0,1,114.439,75.48Z" transform="translate(0 -10.338)"/><path class="d" d="M119.608,114v43.58a7.593,7.593,0,0,1-7.789,7.379H53.789A7.593,7.593,0,0,1,46,157.58V114h58.509" transform="translate(-5.169 -51.689)"/><path class="e" d="M106.65,162.621H48.619A10.433,10.433,0,0,1,38,152.411v-43.58A2.829,2.829,0,0,1,40.831,106h58.51a2.831,2.831,0,1,1,0,5.662H43.662v40.749a4.771,4.771,0,0,0,4.957,4.548H106.65a4.771,4.771,0,0,0,4.957-4.548v-43.58a2.831,2.831,0,0,1,5.662,0v43.58A10.433,10.433,0,0,1,106.65,162.621Z" transform="translate(0 -46.52)"/><path class="e" d="M112.831,50.986A2.829,2.829,0,0,1,110,48.155V36.831a2.831,2.831,0,1,1,5.662,0V48.155A2.829,2.829,0,0,1,112.831,50.986Z" transform="translate(-46.52)"/><path class="f" d="M46,114H82.8v16.986H46Z" transform="translate(-5.169 -51.689)"/><path class="e" d="M77.635,128.649h-36.8A2.829,2.829,0,0,1,38,125.817V108.831A2.829,2.829,0,0,1,40.831,106h36.8a2.829,2.829,0,0,1,2.831,2.831v16.986A2.829,2.829,0,0,1,77.635,128.649Zm-33.973-5.662H74.8V111.662H43.662Z" transform="translate(0 -46.52)"/><path class="f" d="M150,114h36.8v16.986H150Z" transform="translate(-72.365 -51.689)"/><path class="e" d="M181.635,128.649h-36.8A2.829,2.829,0,0,1,142,125.817V108.831A2.829,2.829,0,0,1,144.831,106h36.8a2.829,2.829,0,0,1,2.831,2.831v16.986A2.829,2.829,0,0,1,181.635,128.649Zm-33.973-5.662H178.8V111.662H147.662Z" transform="translate(-67.196 -46.52)"/><path class="f" d="M46,210H82.8v16.986H46Z" transform="translate(-5.169 -113.717)"/><path class="e" d="M77.635,224.648h-36.8A2.829,2.829,0,0,1,38,221.817V204.831A2.829,2.829,0,0,1,40.831,202h36.8a2.829,2.829,0,0,1,2.831,2.831v16.986A2.829,2.829,0,0,1,77.635,224.648Zm-33.973-5.662H74.8V207.662H43.662Z" transform="translate(0 -108.548)"/><path class="f" d="M46,162H82.8v16.986H46Z" transform="translate(-5.169 -82.703)"/><g transform="translate(38 34)"><path class="e" d="M77.635,176.648h-36.8A2.829,2.829,0,0,1,38,173.817V156.831A2.829,2.829,0,0,1,40.831,154h36.8a2.829,2.829,0,0,1,2.831,2.831v16.986A2.829,2.829,0,0,1,77.635,176.648Zm-33.973-5.662H74.8V159.662H43.662Z" transform="translate(-38 -111.534)"/><path class="e" d="M176.831,50.986A2.829,2.829,0,0,1,174,48.155V36.831a2.831,2.831,0,1,1,5.662,0V48.155A2.829,2.829,0,0,1,176.831,50.986Z" transform="translate(-125.872 -34)"/><path class="c" d="M190.988,200.65a2.828,2.828,0,0,1-2.179-1.017l-14.155-16.986a2.832,2.832,0,1,1,4.351-3.627l14.155,16.986a2.831,2.831,0,0,1-2.173,4.645Z" transform="translate(-125.871 -127.042)"/><path class="c" d="M176.827,200.649A2.831,2.831,0,0,1,174.654,196l14.155-16.986a2.832,2.832,0,0,1,4.351,3.627l-14.155,16.986A2.828,2.828,0,0,1,176.827,200.649Z" transform="translate(-125.871 -127.042)"/></g></g></g></svg>