<svg xmlns="http://www.w3.org/2000/svg" width="60" height="60" viewBox="0 0 60 60"><defs><style>.a{fill:#f4f5f8;}.b{fill:#0071b7;}</style></defs><g transform="translate(-661 -502)"><g transform="translate(661 502)"><path class="a" d="M30,0A30,30,0,1,1,0,30,30,30,0,0,1,30,0Z" transform="translate(0)"/></g><g transform="translate(680.619 519.007)"><path class="b" d="M19.937,28.336a.841.841,0,0,0-.825.662,1.628,1.628,0,0,1-.325.708,1.228,1.228,0,0,1-1.046.383,1.248,1.248,0,0,1-1.046-.383A1.628,1.628,0,0,1,16.371,29a.841.841,0,0,0-.825-.662h0a.847.847,0,0,0-.825,1.033,2.9,2.9,0,0,0,3.02,2.41,2.9,2.9,0,0,0,3.02-2.41.85.85,0,0,0-.825-1.033Z" transform="translate(-7.379 -5.792)"/><path class="b" d="M27.276,23.175c-1-1.318-2.968-2.091-2.968-8,0-6.06-2.676-8.5-5.17-9.08-.234-.058-.4-.136-.4-.383V5.528a1.593,1.593,0,0,0-1.559-1.6h-.039a1.593,1.593,0,0,0-1.559,1.6v.188c0,.24-.169.325-.4.383-2.5.591-5.17,3.02-5.17,9.08,0,5.9-1.968,6.67-2.968,8A1.289,1.289,0,0,0,8.07,25.24H26.263A1.29,1.29,0,0,0,27.276,23.175Zm-2.533.377H9.6a.285.285,0,0,1-.214-.474,7.868,7.868,0,0,0,1.364-2.169,14.719,14.719,0,0,0,.929-5.729,9.961,9.961,0,0,1,1.357-5.638A4.167,4.167,0,0,1,15.546,7.75a2.276,2.276,0,0,0,1.208-.682.514.514,0,0,1,.773-.013,2.353,2.353,0,0,0,1.221.695,4.167,4.167,0,0,1,2.514,1.793,9.961,9.961,0,0,1,1.357,5.638,14.719,14.719,0,0,0,.929,5.729,7.958,7.958,0,0,0,1.4,2.2A.269.269,0,0,1,24.743,23.552Z" transform="translate(-6.775 -3.93)"/></g></g></svg>