<svg xmlns="http://www.w3.org/2000/svg" xmlns:xlink="http://www.w3.org/1999/xlink" width="565.129" height="584.486" viewBox="0 0 565.129 584.486"><defs><style>.a{fill:#f7cc7f;}.b{fill:#c7e6ff;}.c{fill:#f0fbff;opacity:0.8;}.d{fill:#fff;}.e{fill:#878583;}.f{fill:#f47458;}.g{fill:#ebd6ac;}.h{fill:#0e2e35;}.i{fill:#1f4752;}.j{fill:#d1cfcb;}.k{fill:url(#a);}.l{fill:#c1dae3;}.m{fill:#858585;}.n{fill:#7a7a7a;}.o{fill:#592d24;}.p{fill:#f8a492;}.q{fill:#e5b05c;}.r{fill:#f7a491;}.s{fill:#dd513a;}.t{fill:#fe875e;}.u{fill:#13375b;}.v{fill:#6394db;}.w{fill:#86b1f2;}</style><linearGradient id="a" y1="0.5" x2="1" y2="0.5" gradientUnits="objectBoundingBox"><stop offset="0" stop-color="#1f90f2"/><stop offset="1" stop-color="#a3d6ff"/></linearGradient></defs><g transform="translate(-132.5 -138.471)"><path class="a" d="M766.391,1870H290.883a2.478,2.478,0,0,1-2.483-2.483v-.134a2.478,2.478,0,0,1,2.483-2.484H766.391a2.478,2.478,0,0,1,2.483,2.484v.134A2.478,2.478,0,0,1,766.391,1870Z" transform="translate(-103.58 -1147.044)"/><path class="b" d="M236.714,696.243c-119.473-93.7,5.571-189.31-19.263-306.87-25.505-120.848-46.816-240.22,139.34-250.49,146.119-8.054,321.569,102.76,360.3,255.557,56.951,224.85-68.26,301.769-68.26,301.769C439.851,696.243,236.714,696.243,236.714,696.243Z" transform="translate(-34.309)"/><path class="c" d="M455.782,350.358c-1.779-6.175-8.658-10.773-16.914-10.773a22.888,22.888,0,0,0-4.363.436c-4.061-6.947-12.887-11.779-23.123-11.779a32.6,32.6,0,0,0-7.584.906C398.261,321.9,388.26,317,376.816,317c-13.592,0-25.2,6.913-29.6,16.578a26,26,0,0,0-10.5-2.181c-11.914,0-21.612,7.719-21.612,17.283a14.073,14.073,0,0,0,.1,1.678Z" transform="translate(-121.32 -118.615)"/><path class="c" d="M1171.832,762.417c-2.484-8.658-12.182-15.135-23.76-15.135a30.481,30.481,0,0,0-6.141.638c-5.705-9.8-18.122-16.579-32.486-16.579a44.058,44.058,0,0,0-10.672,1.309c-7.752-10.269-21.814-17.149-37.855-17.149-19.1,0-35.406,9.732-41.547,23.324a36.241,36.241,0,0,0-14.733-3.054c-16.746,0-30.338,10.873-30.338,24.3,0,.805.067,1.577.134,2.349Z" transform="translate(-559.294 -383.38)"/><path class="c" d="M240.1,1269.779c1.41-4.9,6.88-8.558,13.424-8.558a16.527,16.527,0,0,1,3.457.369c3.222-5.537,10.236-9.363,18.357-9.363a25.243,25.243,0,0,1,6.041.738c4.363-5.806,12.316-9.665,21.378-9.665,10.806,0,19.968,5.5,23.458,13.189a20.278,20.278,0,0,1,8.323-1.745c9.464,0,17.115,6.141,17.115,13.726,0,.436-.034.906-.067,1.342H240.1Z" transform="translate(-71.49 -734.051)"/><g transform="translate(132.5 215.092)"><path class="d" d="M711.817,1172.8h-54.6c-7.886,65.609-8.994,151.455-71.516,212.165H783.367C718.093,1314.355,718.194,1237.369,711.817,1172.8Z" transform="translate(-433.607 -902.303)"/><g transform="translate(147.402)"><path class="e" d="M847.173,1147.522H789.349a2.335,2.335,0,0,1-2.349-2.349V1129.5h62.522v15.672A2.335,2.335,0,0,1,847.173,1147.522Z" transform="translate(-714.754 -873.534)"/><g transform="translate(0 168.711)"><path class="f" d="M626.519,869.5s-23.559,31.412-40.339,50.709c-22.619,26.076-16.612,29.4,3.658,101.686,51.548-34.734,29.566-84.805,48.091-94.907C671.69,908.564,626.519,869.5,626.519,869.5Z" transform="translate(-571.724 -869.5)"/><path class="f" d="M977.909,869.5s23.559,31.412,40.339,50.709c22.619,26.076,16.612,29.4-3.658,101.686-51.548-34.734-29.566-84.805-48.091-94.907C932.738,908.564,977.909,869.5,977.909,869.5Z" transform="translate(-825.691 -869.5)"/></g><g transform="translate(39.357)"><path class="f" d="M817.265,510.726c0-60.542-35-114.606-53.091-138.5a13.78,13.78,0,0,0-21.68-.336C724.036,394.777,689,446.358,689,507.773c0,24.834,17.015,95.31,25.875,113.264a12.635,12.635,0,0,0,11.31,7.047h55.273a12.673,12.673,0,0,0,11.31-7.047C801.626,603.082,817.265,535.527,817.265,510.726Z" transform="translate(-689 -366.782)"/></g><path class="a" d="M792.833,694.266c8.86-17.955,24.532-85.51,24.532-110.311,0-36.882-12.988-71.348-27.217-98.061a78.1,78.1,0,0,0-75.778,1.879c-13.491,25.3-25.27,57.622-25.27,93.2,0,24.834,17.015,95.309,25.875,113.264a12.635,12.635,0,0,0,11.31,7.048h55.273A12.569,12.569,0,0,0,792.833,694.266Z" transform="translate(-649.709 -440.011)"/><g transform="translate(48.007 58.915)"><circle class="g" cx="39.366" cy="39.366" r="39.366" transform="translate(18.601 16.801)"/><circle class="h" cx="39.366" cy="39.366" r="39.366" transform="translate(0 55.671) rotate(-45)"/><path class="i" d="M765.245,630.936a39.391,39.391,0,0,1,50.876-37.654,39.373,39.373,0,1,0-24.734,74.737A39.386,39.386,0,0,1,765.245,630.936Z" transform="translate(-747.148 -574.669)"/><path class="j" d="M879.274,804.487a2.987,2.987,0,1,1-2.987-2.987A2.994,2.994,0,0,1,879.274,804.487Z" transform="translate(-820.099 -714.526)"/><path class="j" d="M878.774,603.087a2.987,2.987,0,1,1-2.987-2.987A2.993,2.993,0,0,1,878.774,603.087Z" transform="translate(-819.767 -580.715)"/><circle class="j" cx="2.987" cy="2.987" r="2.987" transform="translate(77.869 35.914) rotate(-76.714)"/><path class="j" d="M807.274,775.887a2.987,2.987,0,1,1-2.987-2.987A2.993,2.993,0,0,1,807.274,775.887Z" transform="translate(-772.262 -695.524)"/><path class="j" d="M954.474,771.987A2.987,2.987,0,1,1,951.487,769,2.994,2.994,0,0,1,954.474,771.987Z" transform="translate(-870.062 -692.933)"/><path class="j" d="M803.674,635.387a2.987,2.987,0,1,1-2.987-2.987A2.993,2.993,0,0,1,803.674,635.387Z" transform="translate(-769.87 -602.175)"/><circle class="j" cx="2.987" cy="2.987" r="2.987" transform="translate(86.02 56.256) rotate(-45)"/><circle class="j" cx="2.987" cy="2.987" r="2.987" transform="translate(18.578 59.169) rotate(-88.494)"/><circle class="k" cx="28.895" cy="28.895" r="28.895" transform="translate(26.789 26.768)"/><path class="l" d="M797.922,654.552a28.891,28.891,0,0,1,48.292-21.411,28.893,28.893,0,1,0-42.151,39.231A28.854,28.854,0,0,1,797.922,654.552Z" transform="translate(-767.811 -595.332)"/><g transform="translate(18.097 18.915)"><path class="e" d="M877.774,803.187a2.987,2.987,0,1,1-2.987-2.987A2.994,2.994,0,0,1,877.774,803.187Z" transform="translate(-837.2 -732.577)"/><path class="m" d="M877.444,807.489a1.644,1.644,0,1,1,1.644-1.644A1.647,1.647,0,0,1,877.444,807.489Z" transform="translate(-839.858 -735.235)"/><path class="e" d="M877.174,601.687a2.987,2.987,0,1,1-2.987-2.987A2.994,2.994,0,0,1,877.174,601.687Z" transform="translate(-836.801 -598.7)"/><path class="m" d="M876.844,606.089a1.644,1.644,0,1,1,1.644-1.644A1.606,1.606,0,0,1,876.844,606.089Z" transform="translate(-839.459 -601.424)"/><path class="e" d="M952.974,635.387a2.987,2.987,0,1,1-2.987-2.987A2.993,2.993,0,0,1,952.974,635.387Z" transform="translate(-887.163 -621.09)"/><path class="m" d="M952.645,639.689a1.644,1.644,0,1,1,1.644-1.644A1.647,1.647,0,0,1,952.645,639.689Z" transform="translate(-889.821 -623.748)"/><path class="e" d="M805.674,774.487a2.987,2.987,0,1,1-2.987-2.987A2.993,2.993,0,0,1,805.674,774.487Z" transform="translate(-789.297 -713.509)"/><path class="m" d="M805.344,778.889a1.644,1.644,0,1,1,1.644-1.644A1.625,1.625,0,0,1,805.344,778.889Z" transform="translate(-791.954 -716.233)"/><circle class="e" cx="2.987" cy="2.987" r="2.987" transform="translate(59.398 62.145) rotate(-80.782)"/><path class="m" d="M952.645,774.889a1.644,1.644,0,1,1,1.644-1.644A1.647,1.647,0,0,1,952.645,774.889Z" transform="translate(-889.821 -713.575)"/><circle class="e" cx="2.987" cy="2.987" r="2.987" transform="translate(9.229 10.84)"/><path class="m" d="M801.844,638.289a1.644,1.644,0,1,1,1.644-1.644A1.647,1.647,0,0,1,801.844,638.289Z" transform="translate(-789.629 -622.818)"/><path class="e" d="M979.074,702.687a2.987,2.987,0,1,1-2.987-2.987A2.994,2.994,0,0,1,979.074,702.687Z" transform="translate(-904.504 -665.805)"/><path class="m" d="M978.844,706.989a1.644,1.644,0,1,1,1.645-1.644A1.647,1.647,0,0,1,978.844,706.989Z" transform="translate(-907.228 -668.462)"/><path class="e" d="M774.674,702.687a2.987,2.987,0,1,1-2.987-2.987A2.993,2.993,0,0,1,774.674,702.687Z" transform="translate(-768.7 -665.805)"/><path class="m" d="M774.344,706.989a1.644,1.644,0,1,1,1.644-1.644A1.626,1.626,0,0,1,774.344,706.989Z" transform="translate(-771.358 -668.462)"/></g><path class="n" d="M857.662,668.678a23.582,23.582,0,0,1-28.727,16.914,23.246,23.246,0,0,1-10.034-5.47A24.287,24.287,0,1,0,852.527,647.2,23.6,23.6,0,0,1,857.662,668.678Z" transform="translate(-783.956 -612.008)"/></g><path class="f" d="M872.177,979.9c0,38.258-3.792,62.958-8.189,69.3-4.564-6.578-8.188-31.009-8.188-69.3a302.1,302.1,0,0,1,8.188-69.3A302.459,302.459,0,0,1,872.177,979.9Z" transform="translate(-760.465 -728.096)"/><path class="o" d="M703.366,536.913c0-63.965,37.587-117.66,57.387-141.521l.067-.067a2.783,2.783,0,0,0-3.222-4.329,13.4,13.4,0,0,0-5.6,4.027c-18.458,22.217-53.494,72.254-53.494,131.89,0,23.727,15.27,82.456,24.23,101.048C713.3,598.495,703.366,557.149,703.366,536.913Z" transform="translate(-655.954 -382.733)"/></g><path class="d" d="M1310.106,1643.071l48.427-49.232c-8.558-9.7-24.7-36.446-54.9-32.083-27.955,4.027-39.2,22.754-39.2,48.058q0,2.466.2,4.833c-.369,0-.7-.034-1.074-.034a27.048,27.048,0,0,0-10,1.913c-4.8-16.042-17.854-27.519-33.19-27.519-17.787,0-32.452,15.4-34.835,35.406a20.679,20.679,0,0,0-6.611-1.074c-10.773,0-19.9,8.289-22.921,19.733h154.106Z" transform="translate(-812.516 -1160.409)"/><path class="d" d="M272.209,1583.541c-10.1,0-18.894,6.544-23.425,16.209a17.925,17.925,0,0,0-14.028-7.215,17.509,17.509,0,0,0-12.686,5.672c-2.718-19.532-17.216-34.432-34.7-34.432a29.681,29.681,0,0,0-8.323,1.174v-1.174c0-27.855-19.33-50.474-43.158-50.474-1.141,0-2.249.067-3.39.168v97.726H298.788C297.245,1595.622,285.935,1583.541,272.209,1583.541Z" transform="translate(-132.5 -1128.532)"/></g><g transform="translate(515.953 219.528)"><path class="f" d="M1371.752,380h-88.228a8.436,8.436,0,0,0-8.424,8.457v55.877a8.458,8.458,0,0,0,8.424,8.457h59.535c4.3,6.007,12.082,16.813,12.786,16.813.638,0-.6-10.169-1.477-16.813h17.384a8.436,8.436,0,0,0,8.423-8.457V388.491A8.443,8.443,0,0,0,1371.752,380Z" transform="translate(-1275.1 -380)"/><path class="d" d="M1303.769,465.6h42.889a.265.265,0,0,1,.269.268v3.322a.265.265,0,0,1-.269.269h-42.889a.265.265,0,0,1-.268-.269v-3.322A.289.289,0,0,1,1303.769,465.6Z" transform="translate(-1293.969 -436.873)"/><path class="d" d="M1487.243,469.426h-35.808a.229.229,0,0,1-.235-.235v-3.356a.229.229,0,0,1,.235-.235h35.808a.229.229,0,0,1,.235.235v3.356A.229.229,0,0,1,1487.243,469.426Z" transform="translate(-1392.101 -436.873)"/><path class="d" d="M1464.057,432.226h-47.722a.229.229,0,0,1-.235-.235v-3.356a.229.229,0,0,1,.235-.235h47.722a.229.229,0,0,1,.235.235v3.356C1464.325,432.125,1464.191,432.226,1464.057,432.226Z" transform="translate(-1368.781 -412.157)"/><path class="d" d="M1332.9,432.226h-29.163a.229.229,0,0,1-.235-.235v-3.356a.229.229,0,0,1,.235-.235H1332.9a.229.229,0,0,1,.235.235v3.356A.229.229,0,0,1,1332.9,432.226Z" transform="translate(-1293.969 -412.157)"/><path class="d" d="M1389.514,542.426H1303.5V538.6h86.014Z" transform="translate(-1293.969 -485.374)"/><rect class="d" width="40.909" height="3.826" transform="translate(9.531 41.111)"/><rect class="d" width="40.909" height="3.826" transform="translate(54.467 41.111)"/><path class="p" d="M1627.855,1053.109a11.624,11.624,0,0,1-1.141,2.786c-3.322,6.007-10.974,14.6-10.974,14.6l-5.94-13.39s.973-4.195,2.651-10.2C1618.156,1048.41,1623.627,1049.283,1627.855,1053.109Z" transform="translate(-1497.476 -823.09)"/><path class="q" d="M1562.2,938.222s33.124,14.263,34.2,13.994c.7-.168,13.592-21.747,13.726-42.05.067-9.363-9.665-20.639-20.538-18.424-5.47,1.107-5.37,2.651-13.491,14.4C1568.006,917.885,1562.2,938.222,1562.2,938.222Z" transform="translate(-1465.85 -719.815)"/><path class="r" d="M1439.42,1792.8s.772,13.021.805,13.021c.3,1.645,1.41,5.739,1.41,7.249,0,5.638-26.781-4.8-20.773-7.282.537-.235,3.39-1.947,3.557-3.859.268-2.953.973-8.927.973-8.927Z" transform="translate(-1371.361 -1318.669)"/><path class="s" d="M1375.241,1829.587s6.41,1.913,9.665,2.416c3.289.47,7.585-3.591,9.934-2.484,2.551,1.208,2.45,12.082,2.45,12.082s-34.332,3.087-43.963-.1C1349.5,1840.191,1362.153,1834.05,1375.241,1829.587Z" transform="translate(-1326.613 -1342.937)"/><path class="r" d="M1602.72,1792.8s.772,13.021.805,13.021c.3,1.645,1.409,5.739,1.409,7.249,0,5.638-26.781-4.8-20.773-7.282.537-.235,4.228-3.222,4.4-5.135.268-2.953.134-7.652.134-7.652Z" transform="translate(-1479.858 -1318.669)"/><path class="s" d="M1541.415,1829.587s6.41,1.913,9.665,2.416c3.289.47,7.584-3.591,9.934-2.484,2.551,1.208,2.651,12.082,2.651,12.082s-34.5,3.591-44.2-.1C1515.709,1840.024,1528.327,1834.05,1541.415,1829.587Z" transform="translate(-1437.011 -1342.937)"/><g transform="translate(59.076 135.179)"><path class="r" d="M1506.73,884.855,1483.138,851.8c-.1-.3-.3-.872-.638-1.779-1.175-3.289-3.658-10.1-5.806-16.881l-.033-.067c-.671-2.383-2.114-6.511-3.49-10.5-1.544-4.463-3.457-9.967-3.524-10.907.067-.168.168-.436.3-.839a73.526,73.526,0,0,0,2.45-9.9c.269-1.477.537-5.068-1.242-5.068-2.752,0-1.443,3.591-2.718,5.839a57.07,57.07,0,0,1-1.913-7.484l-.47-7.014c-.1-.537.47-4.4-1.477-4.4h-.1c-1.745.134-1.712,4.262-2.417,11.209-.235-.805-.47-1.779-.637-2.651a23.479,23.479,0,0,0-.6-3.692c.336-1.946.134-5-1.913-4.732-1.04.134-.94,4.43-.94,4.43,0,.571.067,5.1.034,6.007-.2-1.51-1.041-7.987-2.651-7.987-1.342,0-1.443,1.745-1.409,3.121,0,.805.873,7.819.906,8.625-.638-1.074-1.376-7.249-2.013-7.249-2.618,0-1.678,8.793-.7,11.075a7.756,7.756,0,0,1,.3,1.208,21.624,21.624,0,0,0,2.249,6.544c1.644,2.819,3.926,7.282,4.262,7.987.268,1.409,1.04,6.443,2.047,12.753.436,2.718.906,5.672,1.376,8.759h.034c.1.671.571,2.785,2.45,10.739,2.55,10.873,2.819,11.343,2.92,11.544,1.107,1.947,26.546,36.513,27.62,37.956l.638.873Z" transform="translate(-1451.133 -782.8)"/><path class="f" d="M1486,847.15s1.913-4.9,5.336-4.9a3.951,3.951,0,0,0-3.524.6C1486.168,844.164,1486,847.15,1486,847.15Z" transform="translate(-1474.299 -822.182)"/></g><g transform="translate(100.546 107.817)"><path class="r" d="M1597.4,826.781l3.02,19.2s-11.578,9.3-18.324,7.316c-5.672-1.644-1.779-9.028-1.779-9.028s3.021-10.236,2.081-15.639C1581.495,823.29,1597.4,826.781,1597.4,826.781Z" transform="translate(-1577.57 -783.914)"/><path class="t" d="M1601.388,832.6a47.419,47.419,0,0,1-13.088,3.692,24.86,24.86,0,0,0,.3-7.618c-.436-2.483,2.719-3.054,6.242-2.987,4.6.4,8.726,1.107,8.726,1.107l.57,3.691A9.179,9.179,0,0,1,1601.388,832.6Z" transform="translate(-1583.737 -783.931)"/><path class="r" d="M1609.135,742.56c.47,0-4.564,21.445-12.384,25.136s-19.465,1.779-21.646-4.027c-2.416-6.376,6.41-28.291,17.384-31.043S1609.135,742.56,1609.135,742.56Z" transform="translate(-1574.703 -721.843)"/><path class="u" d="M1625.5,702.285a24.485,24.485,0,0,1,10.068,11.142c2.92,1.376,6.477,4.4,8.189,12.518,2.081,9.967-5.336,17.652-13.223,19.968s-9.095,7.517-9.095,7.517l-.906-5.6s1.745-4.9,4.4-7.35-1.242-6.007-1.577-8.927c-.268-2.249,1.376-6.578,1.041-10.269,0,0-4.4-6.645-8.692-8.289C1608.281,710.172,1617.477,697.654,1625.5,702.285Z" transform="translate(-1600.127 -701.268)"/><path class="r" d="M1639.307,795.382c-1.007,2.483-.6,4.933.94,5.5s3.625-1.007,4.631-3.49.6-4.933-.94-5.5C1642.394,791.355,1640.347,792.933,1639.307,795.382Z" transform="translate(-1617.259 -761.409)"/></g><path class="p" d="M1463.507,1047.938,1418,1040.521s5.168-13.021,7.014-13.021,34.4,14.2,34.4,14.2l2.584,5.2Z" transform="translate(-1370.043 -810.201)"/><path class="v" d="M1553.537,1177.347s4.53,21.948,2.685,38.594-1.98,75.744-1.98,75.744l7.047,94.571-16.746.369s-19.867-94.5-19.5-92.088-6.645-66.549-6.645-66.549l23.66-52.689Z" transform="translate(-1436.749 -908.4)"/><path class="w" d="M1478.814,1163.949s2.953,19.767-.738,28.425-31.714,93.7-32.083,100.612c-.369,6.947-9.7,83.564-9.7,83.564l-19.465-.537-4.229-85.174,8.826-107.056,8.558-27.083Z" transform="translate(-1366.455 -896.042)"/><path class="r" d="M1603,873.985s-4.8,3.155-9.3,2.786c-4.464-.369-10.806-4.5-10.806-4.5l.872-2.987s11.578-1.678,11.88-1.51S1603,873.985,1603,873.985Z" transform="translate(-1479.603 -704.072)"/><path class="p" d="M1428.781,993.717s-17.216,16.243-24.969,13.457-10.974-12.249,7.987-26.109C1428.748,968.648,1428.781,993.717,1428.781,993.717Z" transform="translate(-1356.561 -777.055)"/><path class="a" d="M1443.74,948.995c2.551-13.894,21.076-57.186,22.552-65.173.7-3.893,10.705-3.96,20.236-3.457,10.068.537,20.035,1.812,20.035,1.812s8.893,1.477,12.82,5.135,4.967,13.827-.671,33.09c-4.43,15.2-9.967,23.559-12.686,34.634-.537,3.725-1.04,7.383-1.644,11.679-1.007,16.578,0,38.459,0,38.459s-48.46,10.068-66.583-5.2C1437.833,999.972,1441.122,963.258,1443.74,948.995Z" transform="translate(-1383.198 -712.298)"/><path class="q" d="M1418.7,920.259s19.028,15.706,20.136,15.706c.7,0,27.15-19.431,33.224-35.406,3.356-8.826-3.692-18.693-11.78-18.659-5.6.033-8.088,1.477-19.2,10.84S1418.7,920.259,1418.7,920.259Z" transform="translate(-1370.508 -713.464)"/><path class="d" d="M1581.477,804.9l7.115,3.222a3.429,3.429,0,0,1-4.564,1.309C1580.168,807.82,1581.477,804.9,1581.477,804.9Z" transform="translate(-1478.516 -662.305)"/></g></g></svg>