<svg xmlns="http://www.w3.org/2000/svg" width="24.232" height="28.271" viewBox="0 0 24.232 28.271"><defs><style>.a{fill:#fff;}</style></defs><path class="a" d="M25.73,8.2a3.671,3.671,0,0,1,.757,1.2,3.641,3.641,0,0,1,.316,1.388V28.96a1.508,1.508,0,0,1-1.515,1.515H4.085A1.508,1.508,0,0,1,2.571,28.96V3.718A1.508,1.508,0,0,1,4.085,2.2H18.221a3.642,3.642,0,0,1,1.388.316,3.671,3.671,0,0,1,1.2.757Zm-7-3.849v5.932h5.932a1.724,1.724,0,0,0-.347-.647L19.372,4.7a1.723,1.723,0,0,0-.647-.347Zm6.058,24.106V12.3H18.221a1.508,1.508,0,0,1-1.515-1.515V4.223H4.59V28.455H24.784Zm-2.019-7.068v5.048H6.609V23.407l3.029-3.029L11.658,22.4l6.058-6.058ZM9.638,18.358a3.016,3.016,0,0,1-3.029-3.029A3.016,3.016,0,0,1,9.638,12.3a3.016,3.016,0,0,1,3.029,3.029,3.016,3.016,0,0,1-3.029,3.029Z" transform="translate(-2.571 -2.203)"/></svg>