<svg xmlns="http://www.w3.org/2000/svg" width="66.35" height="61.503" viewBox="0 0 66.35 61.503"><defs><style>.a{fill:#5b9ed6;}.b{fill:#4c83b3;}.c{fill:#5a67ad;}.d{fill:#48538a;}.e{fill:#ef2d57;}.f{fill:#d9294f;}.g{fill:#fcda55;}.h{fill:#d9bc4a;}.i{fill:#f084ad;}.j{fill:#d47499;}.k{fill:#cc264b;}.l{fill:#fff;}.m{fill:#674297;}.n{fill:#f5aa4b;}</style></defs><g transform="translate(0 0)"><path class="a" d="M32.911,173.133a4.317,4.317,0,0,0,4.185-3.259,13.365,13.365,0,0,1,.131-20.322V132.565a4.315,4.315,0,0,0-4.315-4.315H4.315A4.315,4.315,0,0,0,0,132.565v36.253a4.315,4.315,0,0,0,4.315,4.315" transform="translate(0 -111.631)"/><path class="b" d="M32.91,128.25h-3.2a4.315,4.315,0,0,1,4.315,4.315v14.81a2.847,2.847,0,0,1-.676,1.838,16.315,16.315,0,0,0-3.01,5.326,13.4,13.4,0,0,0,.009,10.481l.014.041a2.846,2.846,0,0,1-2.68,3.783H4.314A4.315,4.315,0,0,1,0,164.528v4.29a4.315,4.315,0,0,0,4.315,4.315h28.6a4.306,4.306,0,0,0,3.434-1.7l.014-.019c.031-.042.063-.085.093-.129l.024-.035c.026-.038.053-.078.078-.118l.028-.045q.034-.055.067-.112l.03-.052c.02-.036.04-.072.059-.109l.03-.059c.018-.035.035-.071.052-.107l.029-.063c.016-.036.031-.072.047-.108l.027-.065c.015-.037.028-.074.042-.111l.024-.065c.014-.04.027-.08.039-.121l.019-.058c.018-.06.034-.12.05-.182q-.219-.19-.429-.389l-.05-.047q-.2-.193-.4-.394l-.054-.056q-.2-.2-.381-.417l-.037-.043c-.129-.149-.256-.3-.378-.454a13.364,13.364,0,0,1,1.855-18.522V132.565a4.314,4.314,0,0,0-4.315-4.315Zm0,0" transform="translate(0 -111.631)"/><path class="c" d="M64.938,97.254h20.4v4.017h-20.4Zm0,0" transform="translate(-56.523 -84.651)"/><path class="d" d="M181.852,97.254H187.1v4.017h-5.245Zm0,0" transform="translate(-158.286 -84.651)"/><path class="a" d="M32.227,13.908v4.154a1.621,1.621,0,0,0,1.62,1.62H59.479a1.62,1.62,0,0,0,1.62-1.62V9.753a1.62,1.62,0,0,0-1.62-1.62H33.847a1.621,1.621,0,0,0-1.62,1.62Zm0,0" transform="translate(-28.051 -7.079)"/><path class="b" d="M198.9,8.133V19.682h5.653a1.62,1.62,0,0,0,1.62-1.62V9.753a1.62,1.62,0,0,0-1.62-1.62Zm0,0" transform="translate(-173.127 -7.079)"/><path class="e" d="M79.643,226.244a11.193,11.193,0,1,1-11.193-11.193A11.193,11.193,0,0,1,79.643,226.244Zm0,0" transform="translate(-49.838 -187.183)"/><path class="f" d="M88.041,230.273a11.192,11.192,0,0,1-15.564,15.564,11.192,11.192,0,1,0,15.564-15.564Zm0,0" transform="translate(-63.085 -200.433)"/><path class="g" d="M277.348,281.685a13.366,13.366,0,1,1-13.366-13.365A13.366,13.366,0,0,1,277.348,281.685Zm0,0" transform="translate(-218.14 -233.549)"/><path class="h" d="M290.316,289.293A13.366,13.366,0,0,1,271.59,308.02a13.366,13.366,0,1,0,18.727-18.727Zm0,0" transform="translate(-236.395 -251.804)"/><path class="h" d="M282.937,318.793a13.476,13.476,0,0,0,1.634,1.215l18.437-18.438a13.376,13.376,0,0,0-1.215-1.633,1.031,1.031,0,0,0-.231.173L283.11,318.562a1.019,1.019,0,0,0-.173.231Zm0,0" transform="translate(-246.272 -261.069)"/><path class="i" d="M361.118,139.3c-4.779,1.156-8.52,5.08-8.52,10.167V155.9l.15,0a13.365,13.365,0,0,1,9.546,22.72c.21.013.42.021.633.021a10.328,10.328,0,0,0,10.329-10.328v-18.85a10.329,10.329,0,0,0-8.52-10.167,13.655,13.655,0,0,0-3.617,0Zm0,0" transform="translate(-306.905 -121.13)"/><path class="j" d="M421.226,139.3a12.32,12.32,0,0,0-3.617,0l-.109.022a10.328,10.328,0,0,1,8.41,10.145v18.85a10.329,10.329,0,0,1-6.461,9.577q-.319.377-.664.73c.21.013.42.021.633.021a10.328,10.328,0,0,0,10.328-10.328v-18.85A10.329,10.329,0,0,0,421.226,139.3Zm0,0" transform="translate(-363.397 -121.129)"/><path class="e" d="M418.75,291.379a13.364,13.364,0,0,1,1.123,19.732c.21.013.42.021.633.021A10.328,10.328,0,0,0,430.834,300.8v-9.425Zm0,0" transform="translate(-364.485 -253.62)"/><path class="k" d="M434.539,300.8a10.329,10.329,0,0,1-6.461,9.577c-.1.117-.2.231-.3.345l-.053.058c-.1.111-.2.221-.309.328.21.013.42.021.633.021A10.328,10.328,0,0,0,438.375,300.8v-9.425h-3.836Zm0,0" transform="translate(-372.026 -253.619)"/><path class="l" d="M107.328,258.952h-4.115v-4.115a1.027,1.027,0,1,0-2.055,0v4.115H97.043a1.027,1.027,0,1,0,0,2.055h4.115v4.116a1.027,1.027,0,1,0,2.055,0v-4.116h4.115a1.027,1.027,0,1,0,0-2.055Zm0,0" transform="translate(-83.573 -220.918)"/><g transform="translate(10.225 0)"><path class="m" d="M79.934,13.6a1.028,1.028,0,0,1-1.028-1.028V1.027a1.028,1.028,0,1,1,2.055,0V12.576A1.028,1.028,0,0,1,79.934,13.6Zm0,0" transform="translate(-78.906 0)"/><path class="m" d="M136.848,13.6a1.028,1.028,0,0,1-1.028-1.028V1.027a1.027,1.027,0,1,1,2.055,0V12.576A1.027,1.027,0,0,1,136.848,13.6Zm0,0" transform="translate(-128.445 0)"/><path class="m" d="M193.762,13.6a1.028,1.028,0,0,1-1.028-1.028V1.027a1.027,1.027,0,1,1,2.055,0V12.576A1.027,1.027,0,0,1,193.762,13.6Zm0,0" transform="translate(-177.983 0)"/></g><path class="n" d="M274.624,313.8a1.028,1.028,0,0,1-.726-1.755l18.451-18.451a1.028,1.028,0,1,1,1.453,1.453L275.351,313.5A1.026,1.026,0,0,1,274.624,313.8Zm0,0" transform="translate(-238.142 -255.284)"/></g></svg>