<svg xmlns="http://www.w3.org/2000/svg" width="19.374" height="24.218" viewBox="0 0 19.374 24.218"><defs><style>.a{fill:#0071b7;}</style></defs><path class="a" d="M4.18,10.649A19.135,19.135,0,0,1,4,8.054a18.1,18.1,0,0,1,.753-5.191A1.211,1.211,0,0,1,5.913,2H10.06a2.419,2.419,0,0,1,2.416,2.416V8.054a1.21,1.21,0,0,1-.484.969L7.148,12.656a.438.438,0,0,1-.039.027,15.7,15.7,0,0,0,6.305,8.462L16.464,18.1a1.212,1.212,0,0,1,1.149-.318l3.931.982A2.413,2.413,0,0,1,23.374,21.1v3.9a1.211,1.211,0,0,1-1.211,1.211,17.915,17.915,0,0,1-7.788-1.753A18.13,18.13,0,0,1,4.18,10.649Z" transform="translate(-4 -2)"/></svg>