<svg xmlns="http://www.w3.org/2000/svg" width="23.885" height="16.719" viewBox="0 0 23.885 16.719"><defs><style>.a{fill:#0071b7;}</style></defs><path class="a" d="M-169.7,197a3.545,3.545,0,0,1,1.45.313l-9.811,8.829-9.809-8.83a3.552,3.552,0,0,1,1.447-.312Zm-16.719,16.719H-169.7a3.584,3.584,0,0,0,3.58-3.58l0-9.561a3.548,3.548,0,0,0-.4-1.609l-10.741,9.666a1.187,1.187,0,0,1-.8.307,1.189,1.189,0,0,1-.8-.307l-10.741-9.667a3.528,3.528,0,0,0-.4,1.612l0,9.56A3.587,3.587,0,0,0-186.417,213.719Z" transform="translate(190 -197)"/></svg>