<svg xmlns="http://www.w3.org/2000/svg" width="20" height="20" viewBox="0 0 20 20"><defs><style>.a{fill:#fff;}</style></defs><path class="a" d="M439.8,2h8.4A5.8,5.8,0,0,1,454,7.8v8.4a5.8,5.8,0,0,1-5.8,5.8h-8.4a5.8,5.8,0,0,1-5.8-5.8V7.8A5.8,5.8,0,0,1,439.8,2m-.2,2A3.6,3.6,0,0,0,436,7.6h0v8.8a3.6,3.6,0,0,0,3.6,3.6h8.8a3.6,3.6,0,0,0,3.6-3.6h0V7.6A3.6,3.6,0,0,0,448.4,4h-8.8m9.65,1.5A1.25,1.25,0,1,1,448,6.75a1.25,1.25,0,0,1,1.25-1.25M444,7a5,5,0,1,1-5,5,5,5,0,0,1,5-5m0,2a3,3,0,1,0,3,3A3,3,0,0,0,444,9Z" transform="translate(-434 -2)"/></svg>