<svg xmlns="http://www.w3.org/2000/svg" width="116.729" height="113.642" viewBox="0 0 116.729 113.642"><defs><style>.a{fill:#0071b7;}.b{fill:#3d3d3d;}.c{fill:#f5aa4b;}.d{fill:#ffe49f;}.e{fill:#fff5f5;}.f{fill:#ffdfcf;}.g{fill:#ffeee6;}.h{fill:#ffc9c0;}</style></defs><g transform="translate(0 0)"><path class="a" d="M115.162,66.926c0,30.753-25.627,55.684-57.239,55.684a57.625,57.625,0,0,1-47.46-24.546A63.058,63.058,0,0,1,1.916,76.927,61.075,61.075,0,0,1,1.264,58.97C5.232,31.986,29.087,11.243,57.923,11.243c31.612,0,57.239,24.93,57.239,55.684Zm0,0" transform="translate(-0.708 -8.968)"/><path class="b" d="M309.082,7.266a24.809,24.809,0,1,1-35.086,0A24.81,24.81,0,0,1,309.082,7.266Zm0,0" transform="translate(-199.62 0)"/><path class="c" d="M328.493,7.27a24.812,24.812,0,0,1,2.288,32.452A24.81,24.81,0,0,1,296.041,4.982,24.812,24.812,0,0,1,328.493,7.27Zm0,0" transform="translate(-219.03 -0.004)"/><path class="d" d="M363.038,44.344,342.867,64.515a3.646,3.646,0,0,1-5.157,0L327.668,54.473a3.647,3.647,0,0,1,5.157-5.158l7.464,7.464,17.593-17.592a3.646,3.646,0,1,1,5.156,5.157Zm0,0" transform="translate(-247.378 -30.408)"/><path class="e" d="M374.147,39.184a3.645,3.645,0,0,1,0,5.156L356.792,61.7a3.646,3.646,0,0,1-5.157,0L341.593,51.654a3.643,3.643,0,0,1-.988-3.329,3.643,3.643,0,0,1,3.329.989l7.464,7.464L368.99,39.184a3.646,3.646,0,0,1,5.157,0Zm0,0" transform="translate(-258.487 -30.405)"/><path class="f" d="M177.748,137.672a.7.7,0,0,0,0,1.133,4.955,4.955,0,0,1,2.19,4.24v2.4a4.954,4.954,0,0,1-2.19,4.239.7.7,0,0,0,0,1.133,4.955,4.955,0,0,1,2.19,4.24v2.4a4.954,4.954,0,0,1-2.19,4.239.7.7,0,0,0,0,1.133,4.955,4.955,0,0,1,2.19,4.24v2.4c0,2.654-1.852,4.805-4.135,4.805h-22.08a13.038,13.038,0,0,1-8.621-3.363,13.036,13.036,0,0,0-8.621-3.364H119.57V136.317h14.67a8.139,8.139,0,0,0,7.162-4.805l6.994-14.081a8.13,8.13,0,0,0,.831-3.6V105.8a3.381,3.381,0,0,1,3.1-3.6c4,0,7.235,3.766,7.235,8.41v4.529a16.253,16.253,0,0,1-1.676,7.237l-1.384,2.769a.727.727,0,0,0,.537,1.083H175.8c2.284,0,4.135,2.152,4.135,4.806v2.4a4.954,4.954,0,0,1-2.19,4.239Zm0,0" transform="translate(-88.019 -81.522)"/><path class="g" d="M270.006,103.023v4.135a2.067,2.067,0,0,1-2.067,2.067h-1.767V105.3a3.1,3.1,0,0,1,3.1-3.1c.193,0,.383.009.572.025a2.074,2.074,0,0,1,.161.8Zm0,0" transform="translate(-205.226 -79.366)"/><path class="h" d="M163.4,237.118a2.068,2.068,0,0,1,2.067-2.067h14.472a4.132,4.132,0,0,1-2.19,3.647.552.552,0,0,0-.292.488H165.466a2.068,2.068,0,0,1-2.067-2.067Zm12.4,26.463h-22.08a14.288,14.288,0,0,1-8.621-2.895,14.286,14.286,0,0,0-8.621-2.895H119.57v6.616h16.911A14.285,14.285,0,0,1,145.1,267.3a14.288,14.288,0,0,0,8.621,2.894H175.8a4.135,4.135,0,0,0,4.135-4.135V264a4.1,4.1,0,0,0-.686-2.27,4.132,4.132,0,0,1-3.449,1.856Zm-12.4-5.789a2.068,2.068,0,0,0,2.067,2.067h11.991a.552.552,0,0,1,.292-.488,4.131,4.131,0,0,0,2.19-3.647H165.466a2.068,2.068,0,0,0-2.067,2.067Zm0-10.337a2.068,2.068,0,0,0,2.067,2.067h11.991a.552.552,0,0,1,.292-.488,4.132,4.132,0,0,0,2.19-3.647H165.466a2.068,2.068,0,0,0-2.067,2.067Zm0,0" transform="translate(-88.019 -180.507)"/><path class="c" d="M32.458,217.711v33.906a3.1,3.1,0,0,1-3.1,3.1H19.02a3.1,3.1,0,0,1-2.986-2.274H8.653A50.418,50.418,0,0,1,0,224.12a51.058,51.058,0,0,1,.517-7.236H16.034a3.1,3.1,0,0,1,2.986-2.274H29.357a3.1,3.1,0,0,1,3.1,3.1Zm0,0" transform="translate(0 -164.309)"/><path class="b" d="M0,224.12a51.06,51.06,0,0,1,.513-7.236h9.2v25.366a3.1,3.1,0,0,1-3.1,3.1H4.651A50.457,50.457,0,0,1,0,224.12Zm15.919-6.409v26.876a3.1,3.1,0,0,0,3.1,3.1H29.357a3.1,3.1,0,0,0,3.1-3.1V217.711a3.1,3.1,0,0,0-3.1-3.1H19.02A3.1,3.1,0,0,0,15.919,217.711Zm0,0" transform="translate(0 -164.996)"/></g></svg>